<?xml version="1.0" encoding="UTF-8"?>
<svg width="20px" height="20px" viewBox="0 0 20 20" version="1.1" xmlns="http://www.w3.org/2000/svg" xmlns:xlink="http://www.w3.org/1999/xlink">
    <title>显示</title>
    <defs>
        <rect id="path-1" x="0" y="0" width="20" height="20"></rect>
    </defs>
    <g id="显示" stroke="none" stroke-width="1" fill="none" fill-rule="evenodd">
        <g>
            <mask id="mask-2" fill="white">
                <use xlink:href="#path-1"></use>
            </mask>
            <use id="矩形" fill="#000000" fill-rule="nonzero" opacity="0" xlink:href="#path-1"></use>
            <path d="M20,9.9965076 C20,12.0721358 15.8763748,16.5 10,16.5 C4.2731972,16.5 0,12.1450163 0,9.9965076 C0,7.84832206 4.29162003,3.5 10,3.5 C15.9225587,3.5 20.0014054,7.84834692 20,9.99653246 L20,9.9965076 Z M9.99954513,4.94444444 C7.23835834,4.94444444 4.99999982,7.2079912 4.99999982,10 C4.99999982,12.7920324 7.23833442,15.0555556 9.99954513,15.0555556 C12.7615692,15.0555556 14.9999998,12.7920088 14.9999998,10 C14.9999998,7.2079912 12.7615692,4.94444444 9.99954513,4.94444444 Z M9.99973992,7.11111111 C8.4219189,7.11111111 7.14285688,8.4045664 7.14285688,10 C7.14285688,11.5954471 8.42190523,12.8888889 9.99973992,12.8888889 C11.5780394,12.8888889 12.8571424,11.5954336 12.8571424,10 C12.8571424,8.4045664 11.5780394,7.11111111 9.99973992,7.11111111 Z" id="形状" fill-opacity="0.6" fill="#000000" fill-rule="nonzero" mask="url(#mask-2)"></path>
        </g>
    </g>
</svg>