<?xml version="1.0" encoding="UTF-8"?>
<svg width="20px" height="20px" viewBox="0 0 20 20" version="1.1" xmlns="http://www.w3.org/2000/svg" xmlns:xlink="http://www.w3.org/1999/xlink">
    <title>实况</title>
    <defs>
        <rect id="path-1" x="0" y="0" width="20" height="20"></rect>
    </defs>
    <g id="实况" stroke="none" stroke-width="1" fill="none" fill-rule="evenodd">
        <g id="隐藏">
            <mask id="mask-2" fill="white">
                <use xlink:href="#path-1"></use>
            </mask>
            <use id="矩形" fill="#000000" fill-rule="nonzero" opacity="0" xlink:href="#path-1"></use>
            <g id="相机" mask="url(#mask-2)" fill="#000000" fill-rule="nonzero">
                <g transform="translate(0.000000, 2.000000)">
                    <rect id="矩形" opacity="0" x="0" y="0" width="20" height="16"></rect>
                    <path d="M12.1534917,1 C12.4845083,1 12.794076,1.16380399 12.9802781,1.43748398 L12.9802781,1.43748398 L13.8111099,2.65864102 C13.997312,2.93232101 14.3068797,3.096125 14.6378963,3.096125 L14.6378963,3.096125 L17.4773572,3.096125 C18.3183357,3.096125 19,3.79588529 19,4.659114 L19,4.659114 L19,13.4370112 C19,14.3002595 18.3183357,15 17.4773571,15 L17.4773571,15 L2.52264285,15 C1.68170319,15 1,14.3002399 1,13.4370112 L1,13.4370112 L1,4.659114 C1,3.79586569 1.68170319,3.096125 2.52264285,3.096125 L2.52264285,3.096125 L5.34408145,3.096125 C5.68038136,3.096125 5.99416017,2.92708547 6.17916601,2.6462466 L6.17916601,2.6462466 L6.9672874,1.4498784 C7.15229324,1.16903953 7.46607205,1 7.80237196,1 L7.80237196,1 Z M10.000015,5 C7.79085756,5 6,6.7908692 6,9 C6,11.2091458 7.79085757,13 10.000015,13 C12.2091424,13 14,11.2091458 14,9 C14,6.7908542 12.2091424,5 10.000015,5 Z" id="形状结合" fill-opacity="0.6"></path>
                </g>
            </g>
        </g>
    </g>
</svg>