<?xml version="1.0" encoding="UTF-8"?>
<svg width="20px" height="20px" viewBox="0 0 20 20" version="1.1" xmlns="http://www.w3.org/2000/svg" xmlns:xlink="http://www.w3.org/1999/xlink">
    <title>上传</title>
    <defs>
        <rect id="path-1" x="0" y="0" width="20" height="20"></rect>
    </defs>
    <g id="上传" stroke="none" stroke-width="1" fill="none" fill-rule="evenodd">
        <g id="隐藏">
            <mask id="mask-2" fill="white">
                <use xlink:href="#path-1"></use>
            </mask>
            <use id="矩形" fill="#000000" fill-rule="nonzero" opacity="0" xlink:href="#path-1"></use>
        </g>
        <g id="导入" transform="translate(1.000000, 2.000000)" fill="#000000" fill-rule="nonzero">
            <rect id="矩形" opacity="0" x="1" y="0" width="16" height="16"></rect>
            <path d="M7.43333333,1.2 C7.7,1.2 7.93333333,1.302 8.13333333,1.506 L8.13333333,1.506 L9.2,2.594 C9.36666667,2.798 9.63333333,2.9 9.9,2.9 L9.9,2.9 L16.5,2.9 C17.0666667,2.9 17.5,3.342 17.5,3.92 L17.5,3.92 L17.5,13.78 C17.5,14.358 17.0666667,14.8 16.5,14.8 L16.5,14.8 L1.5,14.8 C0.933333328,14.8 0.5,14.358 0.5,13.78 L0.5,13.78 L0.5,2.22 C0.5,1.64200001 0.933333328,1.2 1.5,1.2 L1.5,1.2 Z M8.93333333,5.33333333 C8.76666666,5.33333333 8.56666666,5.4 8.43333333,5.53333333 L5.63333333,8.53333333 C5.23333333,8.96666666 5.53333333,9.63333333 6.13333333,9.63333333 L7.66666667,9.63333333 L7.66666667,11.6333333 C7.66666667,12 7.96666667,12.3 8.33333333,12.3 L9.66666667,12.3 C10.0333333,12.3 10.3333333,12 10.3333333,11.6333333 L10.3333333,9.63333333 L11.7333333,9.63333333 C12.3333333,9.63333333 12.6333333,8.93333333 12.2333333,8.53333333 L9.43333333,5.53333333 C9.3,5.4 9.13333333,5.33333333 8.93333333,5.33333333 Z" id="形状" fill-opacity="0.6"></path>
        </g>
    </g>
</svg>