<?xml version="1.0" encoding="UTF-8"?>
<svg width="20px" height="20px" viewBox="0 0 20 20" version="1.1" xmlns="http://www.w3.org/2000/svg" xmlns:xlink="http://www.w3.org/1999/xlink">
    <title>隐藏</title>
    <defs>
        <rect id="path-1" x="0" y="0" width="20" height="20"></rect>
    </defs>
    <g id="隐藏" stroke="none" stroke-width="1" fill="none" fill-rule="evenodd">
        <g>
            <mask id="mask-2" fill="white">
                <use xlink:href="#path-1"></use>
            </mask>
            <use id="矩形" fill="#000000" fill-rule="nonzero" opacity="0" xlink:href="#path-1"></use>
            <path d="M16.3621199,2.12523686 C16.3633506,2.12645275 16.364574,2.12767608 16.3657899,2.12890679 L17.7836402,3.56403246 C17.9485686,3.73097031 17.9485686,3.99950509 17.7836402,4.16644294 L16.5243574,5.4417128 C18.7093745,6.87861456 20.0007909,8.78633458 20,9.99652865 C20,12.0743346 15.8763748,16.5068978 10,16.5068978 C8.64867342,16.5068978 7.37828303,16.2641566 6.2258739,15.8649733 L4.24395976,17.8710929 C4.0776087,18.0394709 3.80625726,18.0411139 3.63787935,17.8747629 C3.63664865,17.873547 3.63542531,17.8723237 3.63420942,17.8710929 L2.21635906,16.4359673 C2.05143072,16.2690294 2.05143072,16.0004947 2.21635906,15.8335568 L15.7560395,2.12890679 C15.9223906,1.96052888 16.193742,1.9588858 16.3621199,2.12523686 Z M14.3991878,7.59264363 L7.62136921,14.4527824 C8.32860924,14.840662 9.13866418,15.0609205 9.99954513,15.0609205 C12.7615692,15.0609205 14.9999998,12.7949716 14.9999998,9.99999987 C14.9999998,9.12857448 14.7824047,8.30857477 14.3991878,7.59264363 Z M10,3.49310197 C10.7614981,3.49310197 11.4925164,3.56506405 12.1883009,3.69505403 L10.88159,5.01754942 C10.5952714,4.96598512 10.3005168,4.93907928 9.99954513,4.93907928 C7.23835834,4.93907928 4.99999982,7.20502815 4.99999982,9.99999987 C4.99999982,10.3047677 5.02661326,10.6032449 5.07761609,10.8931799 L2.35039774,13.6531113 C0.869772528,12.3867702 0,10.9668442 0,9.99650377 C0,7.84603854 4.29162003,3.49310197 10,3.49310197 Z" id="形状结合" fill-opacity="0.6" fill="#000000" mask="url(#mask-2)"></path>
        </g>
    </g>
</svg>