<?xml version="1.0" encoding="UTF-8"?>
<svg width="20px" height="20px" viewBox="0 0 20 20" version="1.1" xmlns="http://www.w3.org/2000/svg" xmlns:xlink="http://www.w3.org/1999/xlink">
    <title>导航栏/放大</title>
    <g id="导航栏/放大" stroke="none" stroke-width="1" fill="none" fill-rule="evenodd">
        <rect id="矩形" x="0" y="0" width="20" height="20" rx="1.5"></rect>
        <path d="M10,2.5 C13.7279221,2.5 16.75,5.52207794 16.75,9.25 C16.75,10.9395581 16.1292478,12.4841318 15.1033694,13.6680949 L17.6897862,16.2541261 C17.9826795,16.5470193 17.9826795,17.021893 17.6897862,17.3147862 C17.396893,17.6076795 16.9220193,17.6076795 16.6291261,17.3147862 L14.0013014,14.6867332 C12.8816188,15.5121714 11.4977786,16 10,16 C6.27207794,16 3.25,12.9779221 3.25,9.25 C3.25,5.52207794 6.27207794,2.5 10,2.5 Z M10,4 C7.10050506,4 4.75,6.35050506 4.75,9.25 C4.75,12.1494949 7.10050506,14.5 10,14.5 C12.8994949,14.5 15.25,12.1494949 15.25,9.25 C15.25,6.35050506 12.8994949,4 10,4 Z M10,6.25 C10.4142136,6.25 10.75,6.58578644 10.75,7 L10.75,8.5 L12.25,8.5 C12.6642136,8.5 13,8.83578644 13,9.25 C13,9.66421356 12.6642136,10 12.25,10 L10.75,10 L10.75,11.5 C10.75,11.9142136 10.4142136,12.25 10,12.25 C9.58578644,12.25 9.25,11.9142136 9.25,11.5 L9.25,9.999 L7.75,10 C7.33578644,10 7,9.66421356 7,9.25 C7,8.83578644 7.33578644,8.5 7.75,8.5 L9.25,8.499 L9.25,7 C9.25,6.58578644 9.58578644,6.25 10,6.25 Z" id="形状结合" fill-opacity="0.6" fill="#000000" fill-rule="nonzero"></path>
    </g>
</svg>