<?xml version="1.0" encoding="UTF-8"?>
<svg width="112px" height="40px" viewBox="0 0 112 40" version="1.1" xmlns="http://www.w3.org/2000/svg" xmlns:xlink="http://www.w3.org/1999/xlink">
    <title>NG</title>
    <g id="SMore-ViMo-_运行平台_UI-1.0" stroke="none" stroke-width="1" fill="none" fill-rule="evenodd">
        <g id="四视图" transform="translate(-932.000000, -432.000000)">
            <g id="背景备份-3" transform="translate(524.000000, 400.000000)">
                <g id="编组-2备份" transform="translate(180.000000, 32.000000)">
                    <g id="NG" transform="translate(228.000000, 0.000000)">
                        <polygon id="矩形备份-3" fill="#F44747" points="12 0 112 0 112 40 30 40"></polygon>
                        <path d="M12,0 L30,40 L24,40 L6,0 L12,0 Z" id="形状结合" fill="#F44747" opacity="0.600000024"></path>
                        <path d="M6,0 L24,40 L18,40 L0,0 L6,0 Z" id="形状结合备份" fill="#F44747" opacity="0.300000012"></path>
                        <path d="M48.24,31.22 L51.768,14.696 L55.764,31.22 L64.188,31.22 L69.12,8.36 L65.808,8.36 L62.244,25.1 L58.464,8.36 L49.86,8.36 L45,31.22 L48.24,31.22 Z M77.796,31.508 C80.532,31.508 82.08,30.356 83.34,28.916 L83.484,28.916 L84.168,31.22 L88.416,31.22 L90.504,20.78 L81.18,20.78 L80.64,23.192 L83.664,23.192 C82.908,27.188 81.252,28.808 79.668,28.808 C77.796,28.808 77.724,26.504 77.724,25.568 C77.724,20.744 79.56,10.484 83.268,10.484 C84.672,10.484 84.744,11.96 84.744,12.716 C84.744,13.868 84.564,15.92 84.42,16.964 L90.504,16.964 L91.872,9.98 C89.532,8.972 87.048,8 83.484,8 C74.232,8 69.66,14.444 69.66,21.932 C69.66,28.88 73.62,31.508 77.796,31.508 Z" fill="#FFFFFF" fill-rule="nonzero"></path>
                    </g>
                </g>
            </g>
        </g>
    </g>
</svg>