<?xml version="1.0" encoding="UTF-8"?>
<svg width="112px" height="40px" viewBox="0 0 112 40" version="1.1" xmlns="http://www.w3.org/2000/svg" xmlns:xlink="http://www.w3.org/1999/xlink">
    <title>OK</title>
    <g id="SMore-ViMo-_运行平台_UI-1.0" stroke="none" stroke-width="1" fill="none" fill-rule="evenodd">
        <g id="四视图" transform="translate(-410.000000, -64.000000)">
            <g id="背景" transform="translate(2.000000, 32.000000)">
                <g id="编组-2备份" transform="translate(180.000000, 32.000000)">
                    <g id="OK" transform="translate(228.000000, 0.000000)">
                        <polygon id="矩形备份-3" fill="#0EBD72" points="12 0 112 0 112 40 30 40"></polygon>
                        <path d="M12,0 L30,40 L24,40 L6,0 L12,0 Z" id="形状结合" fill="#0EBD72" opacity="0.600000024"></path>
                        <path d="M6,0 L24,40 L18,40 L0,0 L6,0 Z" id="形状结合备份" fill="#0EBD72" opacity="0.300000012"></path>
                        <path d="M58.536,7.5 C62.8769497,7.5 65.4630202,8.65207524 67.0175854,10.9650047 C68.0359909,12.5114723 68.612,14.4704409 68.612,17 C68.612,21.3791546 66.9692038,25.8267318 64.4854779,28.5328769 C62.1653716,31.0775096 59.2208187,32.008 54.756,32.008 C50.3853385,32.008 47.8449083,31.0795091 46.298472,29.0804408 C45.2045012,27.6846849 44.5,25.5801483 44.5,22.328 C44.5,16.8466877 46.5751414,12.3171949 50.1833821,9.78771125 C52.3461135,8.25888387 54.9902981,7.5 58.536,7.5 Z M58.716,10.984 C58.1323284,10.984 57.5997833,11.3692292 57.099533,11.9509837 C56.4412041,12.7165719 55.8511323,13.8360905 55.3400365,15.134211 C54.106334,18.2676642 53.348,22.4337656 53.348,25.388 C53.348,26.5765199 53.4667353,27.3868486 53.7011839,27.9078454 C53.7946609,28.1155721 53.9032997,28.2685047 54.468,28.488 C55.0331157,28.488 55.5445338,28.0938578 56.0265039,27.50697 C56.6690543,26.724546 57.24444,25.5805134 57.742938,24.2543206 C58.9513657,21.0394468 59.692,16.7632233 59.692,13.76 C59.692,12.662597 59.5999797,11.9205347 58.716,10.984 Z M92.9409302,7.824 L87.5079374,7.824 L79.7237613,16.5536225 L81.5821806,7.86 L72.7471246,7.86 L67.6745261,31.72 L76.4733228,31.72 L78.2875133,23.1410315 L80.9934245,31.72 L89.9374789,31.72 L84.3146352,17.1819897 L92.9409302,7.824 Z" stroke="#0EBD72" fill="#FFFFFF" fill-rule="nonzero"></path>
                    </g>
                </g>
            </g>
        </g>
    </g>
</svg>