<?xml version="1.0" encoding="UTF-8"?>
<svg width="20px" height="20px" viewBox="0 0 20 20" version="1.1" xmlns="http://www.w3.org/2000/svg" xmlns:xlink="http://www.w3.org/1999/xlink">
    <title>中文</title>
    <g id="中文" stroke="none" stroke-width="1" fill="none" fill-rule="evenodd">
        <g id="编组-2备份" transform="translate(2.000000, 2.000000)">
            <circle id="椭圆形" stroke="#FFFFFF" stroke-width="1.5" cx="8" cy="8" r="7.25"></circle>
            <path d="M8.56032785,12.7025303 L8.56032785,9.33010239 L11.0436399,9.33010239 L11.0436399,9.90391848 L12,9.90391848 L12,5.04158216 L8.56032785,5.04158216 L8.56032785,3.3 L7.57376686,3.3 L7.57376686,5.04158216 L4,5.04158216 L4,9.90391848 L4.95636015,9.90391848 L4.95636015,9.33010239 L7.57376686,9.33010239 L7.57376686,12.7025303 L8.56032785,12.7025303 Z M7.57376686,8.39387614 L4.95636015,8.39387614 L4.95636015,5.97780841 L7.57376686,5.97780841 L7.57376686,8.39387614 Z M11.0436399,8.39387614 L8.56032785,8.39387614 L8.56032785,5.97780841 L11.0436399,5.97780841 L11.0436399,8.39387614 Z" id="中" fill="#FFFFFF" fill-rule="nonzero"></path>
        </g>
    </g>
</svg>