<?xml version="1.0" encoding="UTF-8"?>
<svg width="20px" height="20px" viewBox="0 0 20 20" version="1.1" xmlns="http://www.w3.org/2000/svg" xmlns:xlink="http://www.w3.org/1999/xlink">
    <title>关闭</title>
    <g id="关闭" stroke="none" stroke-width="1" fill="none" fill-rule="evenodd">
        <g fill="#FFFFFF">
            <rect id="矩形" opacity="0" x="0" y="0" width="20" height="20"></rect>
            <path d="M10.8,3 C10.9104569,3 11,3.08954305 11,3.2 L11,8.999 L16.8,9 C16.9104569,9 17,9.08954305 17,9.2 L17,10.8 C17,10.9104569 16.9104569,11 16.8,11 L11,10.999 L11,16.8 C11,16.9104569 10.9104569,17 10.8,17 L9.2,17 C9.08954305,17 9,16.9104569 9,16.8 L9,10.999 L3.2,11 C3.08954305,11 3,10.9104569 3,10.8 L3,9.2 C3,9.08954305 3.08954305,9 3.2,9 L9,8.999 L9,3.2 C9,3.08954305 9.08954305,3 9.2,3 L10.8,3 Z" id="形状结合" transform="translate(10.000000, 10.000000) rotate(-45.000000) translate(-10.000000, -10.000000) "></path>
        </g>
    </g>
</svg>