<?xml version="1.0" encoding="UTF-8"?>
<svg width="20px" height="20px" viewBox="0 0 20 20" version="1.1" xmlns="http://www.w3.org/2000/svg" xmlns:xlink="http://www.w3.org/1999/xlink">
    <title>英文</title>
    <g id="英文" stroke="none" stroke-width="1" fill="none" fill-rule="evenodd">
        <g id="编组-6">
            <rect id="矩形备份" fill="#D8D8D8" opacity="0" x="0" y="0" width="20" height="20"></rect>
            <g id="编组-2" transform="translate(2.000000, 2.000000)">
                <circle id="椭圆形" stroke="#FFFFFF" stroke-width="1.5" cx="8" cy="8" r="7.25"></circle>
                <path d="M8.13,11.14 L8.13,10.21 L4.83154932,10.21 L4.83154932,7.94 L7.89,7.94 L7.89,7.01 L4.83154932,7.01 L4.83154932,4.93 L8.13,4.93 L8.13,4 L3.74154932,4 L3.74154932,11.14 L8.13,11.14 Z M9.5740815,11.14 L9.5740815,8.03 C9.6140815,7.61 9.7640815,7.28 10.0040815,7.04 C10.2240815,6.82 10.4940815,6.72 10.7940815,6.72 C11.5940815,6.72 12.0040815,7.16 12.0040815,8.04 L12.0040815,11.14 L13.0640815,11.14 L13.0640815,7.95 C13.0640815,6.53 12.4140815,5.83 11.1340815,5.83 C10.8140815,5.83 10.5240815,5.89 10.2640815,6.03 C10.0040815,6.16 9.7740815,6.35 9.5740815,6.61 L9.5740815,5.97 L8.5140815,5.97 L8.5140815,11.14 L9.5740815,11.14 Z" id="En" fill="#FFFFFF" fill-rule="nonzero"></path>
            </g>
        </g>
    </g>
</svg>