<?xml version="1.0" encoding="UTF-8"?>
<svg width="20px" height="20px" viewBox="0 0 20 20" version="1.1" xmlns="http://www.w3.org/2000/svg" xmlns:xlink="http://www.w3.org/1999/xlink">
    <title>全屏</title>
    <g id="全屏" stroke="none" stroke-width="1" fill="none" fill-rule="evenodd">
        <g id="全盘" fill="#FFFFFF">
            <rect id="矩形备份" opacity="0" x="0" y="0" width="20" height="20"></rect>
            <path d="M15.3,4.5 C15.4104569,4.5 15.5,4.58954305 15.5,4.7 L15.5,15.3 C15.5,15.4104569 15.4104569,15.5 15.3,15.5 L4.7,15.5 C4.58954305,15.5 4.5,15.4104569 4.5,15.3 L4.5,4.7 C4.5,4.58954305 4.58954305,4.5 4.7,4.5 L15.3,4.5 Z M13.3,6.5 L6.7,6.5 C6.58954305,6.5 6.5,6.58954305 6.5,6.7 L6.5,6.7 L6.5,13.3 C6.5,13.4104569 6.58954305,13.5 6.7,13.5 L6.7,13.5 L13.3,13.5 C13.4104569,13.5 13.5,13.4104569 13.5,13.3 L13.5,13.3 L13.5,6.7 C13.5,6.58954305 13.4104569,6.5 13.3,6.5 L13.3,6.5 Z" id="形状结合"></path>
        </g>
    </g>
</svg>