<?xml version="1.0" encoding="UTF-8"?>
<svg width="20px" height="20px" viewBox="0 0 20 20" version="1.1" xmlns="http://www.w3.org/2000/svg" xmlns:xlink="http://www.w3.org/1999/xlink">
    <title>窗口模式</title>
    <g id="窗口模式" stroke="none" stroke-width="1" fill="none" fill-rule="evenodd">
        <g id="全盘" fill="#FFFFFF">
            <rect id="矩形备份" opacity="0" x="0" y="0" width="20" height="20"></rect>
            <path d="M13.8,6 L3.2,6 C3.08954305,6 3,6.08954305 3,6.2 L3,16.8 C3,16.9104569 3.08954305,17 3.2,17 L13.8,17 C13.9104569,17 14,16.9104569 14,16.8 L14,6.2 C14,6.08954305 13.9104569,6 13.8,6 Z M12,8.2 L12,14.8 C12,14.9104569 11.9104569,15 11.8,15 L5.2,15 C5.08954305,15 5,14.9104569 5,14.8 L5,8.2 C5,8.08954305 5.08954305,8 5.2,8 L11.8,8 C11.9104569,8 12,8.08954305 12,8.2 Z" id="形状结合" fill-rule="nonzero"></path>
            <path d="M16.8,3 C16.9104569,3 17,3.08954305 17,3.2 L17,3.2 L17,13.8 C17,13.9104569 16.9104569,14 16.8,14 L16.8,14 L14,14 L14,12 L14.8,12 C14.8920475,12 14.9695714,11.9378173 14.9928558,11.8531679 L15,11.8 L15,5.2 C15,5.08954305 14.9104569,5 14.8,5 L14.8,5 L8.2,5 C8.08954305,5 8,5.08954305 8,5.2 L8,5.2 L8,6 L6,6 L6,3.2 C6,3.10795254 6.06218267,3.03042863 6.14683208,3.00714419 L6.2,3 Z" id="形状结合" fill-rule="nonzero"></path>
        </g>
    </g>
</svg>