<?xml version="1.0" encoding="UTF-8"?>
<svg width="20px" height="20px" viewBox="0 0 20 20" version="1.1" xmlns="http://www.w3.org/2000/svg" xmlns:xlink="http://www.w3.org/1999/xlink">
    <title>关于我们</title>
    <g id="关于我们" stroke="none" stroke-width="1" fill="none" fill-rule="evenodd">
        <g id="编组-5">
            <rect id="矩形" fill="#D8D8D8" opacity="0" x="0" y="0" width="20" height="20"></rect>
            <circle id="椭圆形" stroke="#FFFFFF" stroke-width="1.5" cx="10" cy="10" r="7.25"></circle>
            <path d="M11.2842851,13.242498 C10.655606,14.2347209 10.0161751,15 8.9401352,15 C8.20578744,14.8742587 7.90428553,14.320698 8.06363792,13.7569907 L9.44779207,8.93603252 C9.48099362,8.81789255 9.42501976,8.6916833 9.32273792,8.65395063 C9.22034855,8.61609242 9.02036512,8.75563251 8.8470784,8.95504723 L8.0108251,10.0135933 C7.98799904,9.8363206 8.00836294,9.54206063 8.00836294,9.42362389 C8.63704204,8.43127542 9.66933286,7.64804306 10.3696082,7.64804306 C11.0356928,7.71992458 11.3502474,8.27928333 11.2343107,8.89447638 L9.84082403,13.7387293 C9.82214816,13.8486402 9.87708985,13.9591903 9.97178092,13.9940924 C10.0741165,14.0319506 10.2894535,13.8923535 10.4626757,13.6930529 L11.2988753,12.6345068 C11.3217981,12.8117225 11.2842851,13.1239585 11.2842851,13.242498 Z M11.0417568,7.0049671 C10.5124781,7.0049671 10.0833953,6.59992878 10.0833953,6.00242649 C10.0833953,5.40503832 10.5124673,5 11.0417568,5 C11.570928,5 12,5.40503832 12,6.00242649 C12,6.59992878 11.570928,7.0049671 11.0417568,7.0049671 Z" id="形状" fill="#FFFFFF" fill-rule="nonzero"></path>
        </g>
    </g>
</svg>