<?xml version="1.0" encoding="UTF-8"?>
<svg width="150px" height="100px" viewBox="0 0 150 100" version="1.1" xmlns="http://www.w3.org/2000/svg" xmlns:xlink="http://www.w3.org/1999/xlink">
    <!-- Generator: Sketch 63.1 (92452) - https://sketch.com -->
    <title>暂无数据</title>
    <desc>Created with Sketch.</desc>
    <defs>
        <linearGradient x1="50%" y1="0%" x2="50%" y2="98.4984646%" id="linearGradient-1">
            <stop stop-color="#BFCDDE" offset="0%"></stop>
            <stop stop-color="#FFFFFF" stop-opacity="0" offset="100%"></stop>
        </linearGradient>
        <linearGradient x1="58.0928681%" y1="24.2828789%" x2="50%" y2="69.8214678%" id="linearGradient-2">
            <stop stop-color="#C1CBDC" offset="0%"></stop>
            <stop stop-color="#ADB8CD" offset="100%"></stop>
        </linearGradient>
        <linearGradient x1="44.388415%" y1="0%" x2="52.3282404%" y2="85.126385%" id="linearGradient-3">
            <stop stop-color="#B8C4D6" offset="0%"></stop>
            <stop stop-color="#8A99B5" offset="100%"></stop>
        </linearGradient>
        <linearGradient x1="50%" y1="0%" x2="50%" y2="100%" id="linearGradient-4">
            <stop stop-color="#CED5E4" offset="0%"></stop>
            <stop stop-color="#9DA9C3" offset="100%"></stop>
        </linearGradient>
        <linearGradient x1="71.6175643%" y1="95.4400059%" x2="32.9881314%" y2="13.3864153%" id="linearGradient-5">
            <stop stop-color="#A3B1C4" offset="0%"></stop>
            <stop stop-color="#B9C5D2" offset="100%"></stop>
        </linearGradient>
        <linearGradient x1="43.7749908%" y1="30.0637631%" x2="50%" y2="71.7372709%" id="linearGradient-6">
            <stop stop-color="#B3BFD0" offset="0%"></stop>
            <stop stop-color="#E1E5ED" offset="100%"></stop>
        </linearGradient>
        <linearGradient x1="50%" y1="2.71439959%" x2="50%" y2="92.3162449%" id="linearGradient-7">
            <stop stop-color="#DBE2EB" offset="0%"></stop>
            <stop stop-color="#C2CEDF" offset="100%"></stop>
        </linearGradient>
        <linearGradient x1="55.6517957%" y1="0%" x2="44.9588127%" y2="100%" id="linearGradient-8">
            <stop stop-color="#C8C8C8" offset="0%"></stop>
            <stop stop-color="#EFEFEF" offset="72.0310744%"></stop>
            <stop stop-color="#FFFFFF" stop-opacity="0.0867023601" offset="100%"></stop>
        </linearGradient>
        <linearGradient x1="0%" y1="65.3517615%" x2="100%" y2="65.3517615%" id="linearGradient-9">
            <stop stop-color="#E1E6ED" offset="0%"></stop>
            <stop stop-color="#BFC9D6" offset="100%"></stop>
        </linearGradient>
        <linearGradient x1="35.8313889%" y1="41.2824187%" x2="50%" y2="62.064065%" id="linearGradient-10">
            <stop stop-color="#DBE2EB" offset="0%"></stop>
            <stop stop-color="#D0D9E6" offset="100%"></stop>
        </linearGradient>
    </defs>
    <g id="暂无数据" stroke="none" stroke-width="1" fill="none" fill-rule="evenodd">
        <g id="流量不存在" opacity="0.800000012">
            <rect id="矩形" stroke="#F2F2F2" stroke-width="0.714285714" fill="#AAB9CF" opacity="0" x="3.92857143" y="0.357142857" width="142.142857" height="99.2857143"></rect>
            <path d="M75,59.2857143 C116.421356,59.2857143 150,77.5141209 150,100 L150,100 L0,100 L0.0100478572,99.3267148 C0.672357147,77.1513756 33.9928573,59.2857143 75,59.2857143 Z" id="形状结合" fill="url(#linearGradient-1)"></path>
            <g id="编组-3" transform="translate(35.714286, 27.142857)">
                <polygon id="矩形-copy-10" fill="url(#linearGradient-2)" transform="translate(55.089431, 12.791128) scale(-1, 1) translate(-55.089431, -12.791128) " points="41.2025752 8.35714264 75.4048572 -6.85166191e-14 68.3334288 25.5822563 34.774004 21.8571423"></polygon>
                <polygon id="矩形" fill="#D6DFEA" points="68.3334288 8.35714264 68.976286 8.35714264 75.4048572 21.8571423 74.8050147 21.9223217"></polygon>
                <polygon id="矩形-copy-7" fill="url(#linearGradient-3)" transform="translate(51.875145, 23.929454) scale(-1, 1) translate(-51.875145, -23.929454) " points="34.774004 8.35714264 68.976286 3.69989743e-13 68.976286 47.8589081 34.774004 44.1337941"></polygon>
                <polygon id="矩形-copy-8" fill="url(#linearGradient-4)" transform="translate(21.660860, 23.929454) scale(-1, 1) translate(-21.660860, -23.929454) " points="34.774004 10.285714 8.54771614 7.66308313e-14 8.54771614 47.8589081 34.774004 46.0623655"></polygon>
                <rect id="矩形" fill="#8DC673" x="38.7620011" y="39.8571418" width="1.92857138" height="12.2142854"></rect>
                <polygon id="矩形" fill="url(#linearGradient-5)" points="8.54771614 10.285714 39.4048582 18.3553758 39.4048582 57.2142842 8.54771614 46.0623655"></polygon>
                <polygon id="矩形-copy-9" fill="url(#linearGradient-6)" points="8.54771614 10.285714 39.4048582 18.3553758 31.8069236 37.9285704 4.03065544e-14 26.8724841"></polygon>
                <polygon id="矩形-copy-6" fill="url(#linearGradient-7)" transform="translate(54.190572, 32.785713) scale(-1, 1) translate(-54.190572, -32.785713) " points="39.4048582 8.35714264 68.976286 18.3553758 68.976286 57.2142842 39.4048582 44.1337941"></polygon>
                <g id="编组-2" transform="translate(47.119144, 21.214285)" fill="#FFFFFF">
                    <g id="编组">
                        <polygon id="矩形备份" opacity="0.5" points="-1.43884896e-14 6.03641536 15.6214277 7.41876013e-14 16.2113934 0.30795675 15.6214277 1.73571419 0.589965699 8.08008631 -1.43884896e-14 7.77212956"></polygon>
                        <polygon id="矩形" points="0.589965699 6.34437211 16.2113934 0.30795675 16.2113934 2.04367094 0.589965699 8.08008631"></polygon>
                    </g>
                    <g id="编组备份" transform="translate(0.000000, 5.187229)">
                        <polygon id="矩形备份" opacity="0.5" points="-1.43884896e-14 6.03641536 15.6214277 7.41876013e-14 16.2113934 0.30795675 15.6214277 1.73571419 0.589965699 8.08008631 -1.43884896e-14 7.77212956"></polygon>
                        <polygon id="矩形" points="0.589965699 6.34437211 16.2113934 0.30795675 16.2113934 2.04367094 0.589965699 8.08008631"></polygon>
                    </g>
                    <g id="编组备份-2" transform="translate(0.000000, 12.130086)">
                        <polygon id="矩形备份" opacity="0.5" points="0 4.30070117 10.7062848 -3.84885029e-14 11.2962505 0.30795675 10.7062848 1.73571419 0.589965699 6.34437211 0 6.03641536"></polygon>
                        <polygon id="矩形" points="0.589965699 4.60865792 11.2962505 0.30795675 11.2962505 2.04367094 0.589965699 6.34437211"></polygon>
                    </g>
                </g>
                <polygon id="路径" fill="#E9F4FF" fill-rule="nonzero" points="39.1052136 18.2390596 39.4048582 18.3553758 39.4006575 19.2544339 32.1065682 38.0448866 31.507279 37.8122542"></polygon>
                <path d="M42.7274071,0.336404802 L9.69835458,8.40687515 L38.1309269,18.0200562 L67.9398856,10.2245119 L42.7274071,0.336404802 Z" id="矩形-copy-6备份" stroke="#D9E5F2" stroke-width="0.642857126" transform="translate(38.762001, 9.177688) scale(-1, 1) translate(-38.762001, -9.177688) "></path>
            </g>
            <path d="M70.6936764,43.917145 C67.3039927,34.1478904 73.1089099,25.5706988 78.2617864,28.0573912 C83.4146628,30.5440836 75.1609169,36.7722973 73.5878894,31.3858384 C72.0148619,25.9993795 73.0107141,22.357958 81.3188908,18.3503602" id="路径-2" stroke="url(#linearGradient-8)" stroke-width="0.714285714" stroke-dasharray="0.7142857142857143" transform="translate(75.501086, 31.133753) rotate(7.000000) translate(-75.501086, -31.133753) "></path>
            <g id="编组-5" transform="translate(21.428571, 54.285714)">
                <polygon id="路径-3" fill="url(#linearGradient-9)" points="3.15262515 0 0 16.4285714 6.42857143 16.4285714"></polygon>
                <rect id="矩形" fill="#98A6BD" transform="translate(3.214286, 18.571429) scale(-1, 1) translate(-3.214286, -18.571429) " x="2.85714286" y="16.4285714" width="1" height="4.28571429"></rect>
            </g>
            <g id="编组-5备份" transform="translate(120.714286, 54.285714)">
                <polygon id="路径-3" fill="url(#linearGradient-9)" points="3.15262515 0 0 16.4285714 6.42857143 16.4285714"></polygon>
                <rect id="矩形" fill="#98A6BD" transform="translate(3.214286, 18.571429) scale(-1, 1) translate(-3.214286, -18.571429) " x="2.85714286" y="16.4285714" width="1" height="4.28571429"></rect>
            </g>
            <g id="编组-5备份-2" transform="translate(35.714286, 71.428571)">
                <polygon id="路径-3" fill="url(#linearGradient-9)" points="3.15262515 0 0 16.4285714 6.42857143 16.4285714"></polygon>
                <rect id="矩形" fill="#98A6BD" transform="translate(3.214286, 18.571429) scale(-1, 1) translate(-3.214286, -18.571429) " x="2.85714286" y="16.4285714" width="1" height="4.28571429"></rect>
            </g>
        </g>
        <g id="编组-4" transform="translate(77.142857, 7.142857)">
            <polygon id="路径-8" fill="url(#linearGradient-10)" transform="translate(13.452429, 6.971312) rotate(3.000000) translate(-13.452429, -6.971312) " points="0.714285714 4.93338977 12.9465735 13.2283375 26.1905717 0.714285714"></polygon>
            <polygon id="路径-9" fill="#C8D0E0" points="26.5005819 1.38952364 5.47460074 7.67826915 5.47460074 13.3921561 9.57838159 10.8438073 7.77395849 9.34161526"></polygon>
            <polygon id="路径-9备份" fill="#A6B3C9" points="5.47460074 13.3921561 9.57838159 10.8438073 7.77395849 9.34161526"></polygon>
        </g>
        <rect id="矩形" fill="#D8D8D8" opacity="0" x="0" y="0" width="150" height="100"></rect>
    </g>
</svg>