<?xml version="1.0" encoding="UTF-8"?>
<svg width="24px" height="24px" viewBox="0 0 24 24" version="1.1" xmlns="http://www.w3.org/2000/svg" xmlns:xlink="http://www.w3.org/1999/xlink">
    <title>开启</title>
    <g id="SMore-ViMo-_运行平台_UI-1.0" stroke="none" stroke-width="1" fill="none" fill-rule="evenodd">
        <g id="设置_相机设置" transform="translate(-474.000000, -247.000000)">
            <g id="编组-20" transform="translate(133.000000, 64.000000)">
                <g id="编组-26" transform="translate(160.000000, 50.000000)">
                    <g id="矩形-+-编组-蒙版" transform="translate(160.000000, 124.000000)">
                        <g id="编组">
                            <g id="暂停_不可点" transform="translate(21.000000, 9.000000)">
                                <rect id="矩形备份-5" fill="#D8D8D8" opacity="0" x="0" y="0" width="24" height="24" rx="2"></rect>
                                <rect id="矩形" fill="#D8D8D8" opacity="0" x="0" y="0" width="24" height="24"></rect>
                                <g id="暂停" transform="translate(3.000000, 3.000000)" fill-rule="nonzero">
                                    <rect id="矩形" fill="#000000" opacity="0" x="0" y="0" width="18" height="18"></rect>
                                    <path d="M0.927927736,0.955343531 C0.785302434,0.955343531 0.642335359,1.00979262 0.533401223,1.11874475 C0.424467086,1.22733714 0.37,1.37028621 0.37,1.5129295 L0.37,16.5907342 C0.37,16.7330178 0.424467068,16.8759848 0.533401223,16.984919 C0.642335359,17.0934934 0.785302434,17.1479784 0.927927736,17.1479784 L6.04103705,17.1479784 C6.18366236,17.1479784 6.32662943,17.0935114 6.43556357,16.984919 C6.54415595,16.8759848 6.59860502,16.7330178 6.59860502,16.5907342 L6.59860502,1.51291151 C6.59860502,1.37030419 6.54413795,1.22731914 6.43556357,1.11872677 C6.32662941,1.0098106 6.18366234,0.955343531 6.04103704,0.955343531 L0.927927736,0.955343531 Z M17.0053907,0.955325531 L11.8922814,0.955325531 C11.7496561,0.955325531 11.606689,1.0097926 11.4977549,1.11872675 C11.3888387,1.22731914 11.3343537,1.37030418 11.3343537,1.5129115 L11.3343537,16.5907162 C11.3343537,16.7329998 11.3888387,16.8759668 11.4977549,16.984901 C11.606689,17.0934754 11.7496561,17.1479424 11.8922814,17.1479424 L17.0053907,17.1479424 C17.148016,17.1479424 17.2909831,17.0934754 17.3999172,16.984901 C17.5088514,16.8759668 17.5629587,16.7329998 17.5629587,16.5907162 L17.5629587,1.5129115 C17.5629587,1.37028619 17.5088334,1.22733712 17.3999172,1.11872675 C17.2909831,1.00979262 17.148016,0.955325531 17.0053907,0.955325531 Z" id="形状" fill="#FFFFFF"></path>
                                </g>
                            </g>
                        </g>
                    </g>
                </g>
            </g>
        </g>
    </g>
</svg>