<?xml version="1.0" encoding="UTF-8"?>
<svg width="20px" height="20px" viewBox="0 0 20 20" version="1.1" xmlns="http://www.w3.org/2000/svg" xmlns:xlink="http://www.w3.org/1999/xlink">
    <title>刷新</title>
    <g id="SMore-ViMo-_运行平台_UI-1.0" stroke="none" stroke-width="1" fill="none" fill-rule="evenodd">
        <g id="设置_相机设置" transform="translate(-779.000000, -140.000000)" fill="#000000" fill-rule="nonzero">
            <g id="编组-20" transform="translate(133.000000, 64.000000)">
                <g id="编组-26" transform="translate(160.000000, 50.000000)">
                    <g id="编组-6备份" transform="translate(160.000000, 20.000000)">
                        <g id="刷新" transform="translate(326.000000, 6.000000)">
                            <rect id="矩形" opacity="0" x="0" y="0" width="20" height="20"></rect>
                            <path d="M15.6990019,11.5380171 C15.6990019,11.5380171 15.6990019,11.5380171 15.6990019,11.5380171 C15.0212802,14.038522 12.7303074,15.8828125 10.0175781,15.8828125 C6.77148438,15.8828125 4.13085938,13.2421875 4.13085938,9.99609375 C4.13085938,6.75 6.77148438,4.109375 10.0175781,4.109375 C11.5976563,4.109375 13.1074219,4.75195313 14.2070313,5.86132813 L12.1589347,7.90804638 C11.9636069,8.10324279 11.9635003,8.41982526 12.1586967,8.61515312 C12.2524746,8.70899412 12.3797025,8.76171875 12.5123691,8.76171875 L17.5527344,8.76171875 C17.8288767,8.76171875 18.0527344,8.53786112 18.0527344,8.26171875 L18.0527344,3.22077866 C18.0527344,2.94463628 17.8288767,2.72077866 17.5527344,2.72077866 C17.4201261,2.72077866 17.2929492,2.77345708 17.199181,2.86722527 L15.8300781,4.23632812 L15.8300781,4.23632812 C15.2363281,3.63671875 14.5507813,3.12890625 13.8046875,2.74023438 C12.6445313,2.1328125 11.3339844,1.8125 10.0175781,1.8125 C8.9140625,1.8125 7.84179688,2.02929688 6.83203125,2.45507813 C5.85742188,2.8671875 4.98242188,3.45703125 4.23046875,4.20898438 C3.47851562,4.9609375 2.88867188,5.8359375 2.4765625,6.81054688 C2.05078125,7.8203125 1.83398437,8.89257812 1.83398437,9.99609375 C1.83398437,11.0996094 2.05078125,12.171875 2.4765625,13.1816406 C2.88867188,14.15625 3.47851562,15.03125 4.23046875,15.7832031 C4.98242188,16.5351562 5.85742188,17.125 6.83203125,17.5371094 C7.84179688,17.9648437 8.9140625,18.1796875 10.0175781,18.1796875 C11.1210938,18.1796875 12.1933594,17.9628906 13.203125,17.5371094 C14.1777344,17.125 15.0527344,16.5351562 15.8046875,15.7832031 C16.5566406,15.03125 17.1464844,14.15625 17.5585938,13.1816406 C17.7797218,12.6598421 17.9438359,12.1211986 18.0509362,11.5709871 C18.0509362,11.5709871 18.0509362,11.5709871 18.0509362,11.5709871 C18.084391,11.3991183 17.9721842,11.2326706 17.8003154,11.1992159 C17.7803576,11.195331 17.7600725,11.1933751 17.7397402,11.1933594 L16.1495337,11.1933594 C15.9387624,11.19334 15.7541388,11.3345854 15.6990019,11.5380171 Z" id="路径" fill-opacity="0.12"></path>
                        </g>
                    </g>
                </g>
            </g>
        </g>
    </g>
</svg>