<?xml version="1.0" encoding="UTF-8"?>
<svg width="20px" height="20px" viewBox="0 0 20 20" version="1.1" xmlns="http://www.w3.org/2000/svg" xmlns:xlink="http://www.w3.org/1999/xlink">
    <title>导航栏/重置-默认</title>
    <g id="导航栏/重置-默认" stroke="none" stroke-width="1" fill="none" fill-rule="evenodd">
        <rect id="矩形" x="0" y="0" width="20" height="20" rx="1.5"></rect>
        <path d="M10,2.5 C13.7279221,2.5 16.75,5.52207794 16.75,9.25 C16.75,10.9395581 16.1292478,12.4841318 15.1033694,13.6680949 L17.6897862,16.2541261 C17.9826795,16.5470193 17.9826795,17.021893 17.6897862,17.3147862 C17.396893,17.6076795 16.9220193,17.6076795 16.6291261,17.3147862 L14.0013014,14.6867332 C12.8816188,15.5121714 11.4977786,16 10,16 C6.27207794,16 3.25,12.9779221 3.25,9.25 C3.25,5.52207794 6.27207794,2.5 10,2.5 Z M10,4 C7.10050506,4 4.75,6.35050506 4.75,9.25 C4.75,12.1494949 7.10050506,14.5 10,14.5 C12.8994949,14.5 15.25,12.1494949 15.25,9.25 C15.25,6.35050506 12.8994949,4 10,4 Z" id="形状结合" fill="#FFFFFF" fill-rule="nonzero"></path>
        <path d="M8.50920834,11.1733628 L8.50920834,7.10483391 C8.50920834,6.82869154 8.28535071,6.60483391 8.00920834,6.60483391 C7.99037228,6.60483391 7.97155128,6.6058983 7.95283533,6.60802199 L7.03425904,6.7122524 C6.81512707,6.7371172 6.64957481,6.92251695 6.64957481,7.14305511 C6.64957481,7.3493428 6.81680402,7.51657201 7.02309171,7.51657201 C7.02755517,7.51657201 7.03201826,7.51649201 7.03647885,7.51633203 L7.49879167,7.49975173 L7.49879167,7.49975173 L7.49879167,11.1733628 C7.49879167,11.4495052 7.72264929,11.6733628 7.99879167,11.6733628 L8.00920834,11.6733628 C8.28535071,11.6733628 8.50920834,11.4495052 8.50920834,11.1733628 Z M10.4337197,7.94419617 C10.4337197,7.69873629 10.2347352,7.49975173 9.98927527,7.49975173 L9.86427527,7.49975173 C9.61881539,7.49975173 9.41983083,7.69873629 9.41983083,7.94419617 C9.41983083,8.18965606 9.61881539,8.38864062 9.86427527,8.38864062 L9.98927527,8.38864062 C10.2347352,8.38864062 10.4337197,8.18965606 10.4337197,7.94419617 Z M10.4337197,10.9858628 C10.4337197,10.740403 10.2347352,10.5414184 9.98927527,10.5414184 L9.86427527,10.5414184 C9.61881539,10.5414184 9.41983083,10.740403 9.41983083,10.9858628 C9.41983083,11.2313227 9.61881539,11.4303073 9.86427527,11.4303073 L9.98927527,11.4303073 C10.2347352,11.4303073 10.4337197,11.2313227 10.4337197,10.9858628 Z M12.832125,11.1733628 L12.832125,7.10483391 C12.832125,6.82869154 12.6082674,6.60483391 12.332125,6.60483391 C12.313289,6.60483391 12.2944679,6.6058983 12.275752,6.60802199 L11.3571757,6.7122524 C11.1380437,6.7371172 10.9724915,6.92251695 10.9724915,7.14305511 C10.9724915,7.3493428 11.1397207,7.51657201 11.3460084,7.51657201 C11.3504718,7.51657201 11.3549349,7.51649201 11.3593955,7.51633203 L11.8217083,7.49975173 L11.8217083,7.49975173 L11.8217083,11.1733628 C11.8217083,11.4495052 12.045566,11.6733628 12.3217083,11.6733628 L12.332125,11.6733628 C12.6082674,11.6733628 12.832125,11.4495052 12.832125,11.1733628 Z" id="1:1" fill="#FFFFFF" fill-rule="nonzero"></path>
    </g>
</svg>