<?xml version="1.0" encoding="UTF-8"?>
<svg width="24px" height="24px" viewBox="0 0 24 24" version="1.1" xmlns="http://www.w3.org/2000/svg" xmlns:xlink="http://www.w3.org/1999/xlink">
    <title>实况备份</title>
    <defs>
        <rect id="path-1" x="0" y="0" width="24" height="24"></rect>
    </defs>
    <g id="实况备份" stroke="none" stroke-width="1" fill="none" fill-rule="evenodd">
        <g id="隐藏">
            <mask id="mask-2" fill="white">
                <use xlink:href="#path-1"></use>
            </mask>
            <use id="矩形" fill="#000000" fill-rule="nonzero" opacity="0" xlink:href="#path-1"></use>
            <g id="相机" mask="url(#mask-2)" fill-rule="nonzero">
                <g transform="translate(0.000000, 2.400000)">
                    <rect id="矩形" fill="#000000" opacity="0" x="0" y="0" width="24" height="19.2"></rect>
                    <path d="M14.5841901,1.2 C14.9814099,1.2 15.3528912,1.39656478 15.5763337,1.72498077 L15.5763337,1.72498077 L16.5733319,3.19036923 C16.7967744,3.51878522 17.1682556,3.71535 17.5654755,3.71535 L17.5654755,3.71535 L20.9728286,3.71535 C21.9820028,3.71535 22.8,4.55506235 22.8,5.5909368 L22.8,5.5909368 L22.8,16.1244134 C22.8,17.1603114 21.9820028,18 20.9728286,18 L20.9728286,18 L3.02717142,18 C2.01804383,18 1.2,17.1602879 1.2,16.1244134 L1.2,16.1244134 L1.2,5.5909368 C1.2,4.55503883 2.01804383,3.71535 3.02717142,3.71535 L3.02717142,3.71535 L6.41289774,3.71535 C6.81645764,3.71535 7.1929922,3.51250256 7.41499921,3.17549593 L7.41499921,3.17549593 L8.36074488,1.73985407 C8.58275189,1.40284744 8.95928645,1.2 9.36284635,1.2 L9.36284635,1.2 Z M12.000018,6 C9.34902907,6 7.2,8.14904304 7.2,10.799991 C7.2,13.450975 9.34902909,15.6 12.000018,15.6 C14.6509709,15.6 16.8,13.4509749 16.8,10.799991 C16.8,8.14902504 14.6509709,6 12.000018,6 Z" id="形状结合" fill="#FFFFFF"></path>
                </g>
            </g>
        </g>
    </g>
</svg>