<?xml version="1.0" encoding="UTF-8"?>
<svg width="14px" height="14px" viewBox="0 0 14 14" version="1.1" xmlns="http://www.w3.org/2000/svg" xmlns:xlink="http://www.w3.org/1999/xlink">
    <title>Message/_Icon/Success</title>
    <g id="Message/_Icon/Success" stroke="none" stroke-width="1" fill="none" fill-rule="evenodd">
        <g id="完成">
            <rect id="矩形" fill="#D8D8D8" opacity="0" x="0" y="0" width="14" height="14"></rect>
            <path d="M7,0 C10.8659932,0 14,3.13400675 14,7 C14,10.8659932 10.8659932,14 7,14 C3.13400675,14 0,10.8659932 0,7 C0,3.13400675 3.13400675,0 7,0 Z M9.60355383,4.35355339 C9.40829168,4.15829124 9.09170919,4.15829124 8.89644705,4.35355339 L8.89644705,4.35355339 L6.42157294,6.82842675 L5.36091239,5.76776695 C5.16565024,5.57250481 4.84906775,5.57250481 4.65380561,5.76776695 L4.65380561,5.76776695 L3.94669883,6.47487373 C3.75143668,6.67013588 3.75143668,6.98671837 3.94669883,7.18198051 L3.94669883,7.18198051 L6.06801917,9.30330086 C6.26328132,9.498563 6.57986381,9.498563 6.77512595,9.30330086 L6.77512595,9.30330086 L10.3106606,5.76776695 C10.5059228,5.57250481 10.5059228,5.25592232 10.3106606,5.06066017 L10.3106606,5.06066017 Z" id="形状结合" fill="#0EBD72"></path>
        </g>
    </g>
</svg>