<?xml version="1.0" encoding="UTF-8"?>
<svg width="20px" height="20px" viewBox="0 0 20 20" version="1.1" xmlns="http://www.w3.org/2000/svg" xmlns:xlink="http://www.w3.org/1999/xlink">
    <title>导航栏/缩小-默认</title>
    <g id="导航栏/缩小-默认" stroke="none" stroke-width="1" fill="none" fill-rule="evenodd">
        <rect id="矩形" x="0" y="0" width="20" height="20" rx="1.5"></rect>
        <path d="M13,9.25 C13,9.66421356 12.6642136,10 12.25,10 L7.75,10 C7.33578644,10 7,9.66421356 7,9.25 C7,8.83578644 7.33578644,8.5 7.75,8.5 L12.25,8.5 C12.6642136,8.5 13,8.83578644 13,9.25 Z" id="路径" fill="#FFFFFF"></path>
        <circle id="椭圆形" stroke="#FFFFFF" stroke-width="1.5" cx="10" cy="9.25" r="6"></circle>
        <path d="M15.0836309,12.8336309 L16.5836309,12.8336309 L16.5836309,17.3336309 C16.5836309,17.7478445 16.2478445,18.0836309 15.8336309,18.0836309 C15.4194174,18.0836309 15.0836309,17.7478445 15.0836309,17.3336309 L15.0836309,12.8336309 L15.0836309,12.8336309 Z" id="矩形" fill="#FFFFFF" transform="translate(15.833631, 15.458631) rotate(-45.000000) translate(-15.833631, -15.458631) "></path>
    </g>
</svg>