<?xml version="1.0" encoding="UTF-8"?>
<svg width="20px" height="20px" viewBox="0 0 20 20" version="1.1" xmlns="http://www.w3.org/2000/svg" xmlns:xlink="http://www.w3.org/1999/xlink">
    <title>导航栏/缩小_不可点击</title>
    <g id="导航栏/缩小_不可点击" stroke="none" stroke-width="1" fill="none" fill-rule="evenodd">
        <rect id="矩形" x="0" y="0" width="20" height="20" rx="1.5"></rect>
        <g id="编组" opacity="0.400000006" transform="translate(4.000000, 3.250000)">
            <path d="M9,6 C9,6.41421356 8.66421356,6.75 8.25,6.75 L3.75,6.75 C3.33578644,6.75 3,6.41421356 3,6 C3,5.58578644 3.33578644,5.25 3.75,5.25 L8.25,5.25 C8.66421356,5.25 9,5.58578644 9,6 Z" id="路径" fill="#FFFFFF"></path>
            <circle id="椭圆形" stroke="#FFFFFF" stroke-width="1.5" cx="6" cy="6" r="6"></circle>
            <path d="M11.0836309,9.58363094 L12.5836309,9.58363094 L12.5836309,14.0836309 C12.5836309,14.4978445 12.2478445,14.8336309 11.8336309,14.8336309 C11.4194174,14.8336309 11.0836309,14.4978445 11.0836309,14.0836309 L11.0836309,9.58363094 L11.0836309,9.58363094 Z" id="矩形" fill="#FFFFFF" transform="translate(11.833631, 12.208631) rotate(-45.000000) translate(-11.833631, -12.208631) "></path>
        </g>
    </g>
</svg>