<?xml version="1.0" encoding="UTF-8"?>
<svg width="24px" height="24px" viewBox="0 0 24 24" version="1.1" xmlns="http://www.w3.org/2000/svg" xmlns:xlink="http://www.w3.org/1999/xlink">
    <title>循环采集_选中</title>
    <g id="循环采集_选中" stroke="none" stroke-width="1" fill="none" fill-rule="evenodd">
        <g id="编组-3">
            <rect id="矩形备份-5" fill="#D8D8D8" opacity="0" x="0" y="0" width="24" height="24" rx="2"></rect>
            <g id="循环" transform="translate(2.000000, 1.000000)" fill="#FFFFFF" fill-rule="nonzero">
                <path d="M19.4729436,4.33270841 L15.5636342,1.09079108 C15.1598915,0.755974771 14.5750269,0.755876247 14.1711714,1.09055651 L14.11,1.14125 C13.7631946,1.42865209 13.7150387,1.94277883 14.0024408,2.28958422 C14.0348112,2.32864526 14.0707556,2.36460075 14.1098067,2.39698317 L16.4005,4.2965 L16.4005,4.2965 L1.25240909,4.2965 C0.649916637,4.2965 0.1615,4.78491664 0.1615,5.38740909 L0.1615,9.94325 C0.1615,10.5351612 0.641338819,11.015 1.23325,11.015 C1.82516118,11.015 2.305,10.5351612 2.305,9.94325 L2.305,6.074 L2.305,6.074 L16.402,6.074 L14.1113067,7.97351683 C13.7645898,8.26102567 13.7165922,8.77516721 14.004101,9.1218841 C14.0364835,9.16093519 14.072439,9.19687961 14.1115,9.22925 L14.1702256,9.27791662 C14.5751719,9.61350087 15.1619047,9.61239091 15.5655785,9.27527694 L19.4758337,6.00976445 C19.9382758,5.62357217 20.0000885,4.93561809 19.6138962,4.47317601 C19.5712895,4.42215708 19.5241091,4.37513898 19.4729436,4.33270841 Z M17.311,15.8975 L3.6175,15.8975 L5.90782478,13.9982888 C6.25491754,13.7104682 6.30296719,13.1957693 6.01514666,12.8486765 C5.98283128,12.8097063 5.94696123,12.7738262 5.908,12.7415 L5.8468126,12.6907326 C5.44300948,12.355696 4.85789807,12.3555845 4.45396732,12.6904673 L0.544070746,15.9320054 C0.0802498771,16.3165407 0.0159761838,17.0042692 0.400511434,17.4680901 C0.443026957,17.5193717 0.490150176,17.5666514 0.541290564,17.6093367 L4.45353916,20.8747685 C4.85740374,21.2118617 5.44431276,21.2127227 5.84916462,20.8768159 L5.908,20.828 C6.2550125,20.5400827 6.30291862,20.0253704 6.01500132,19.6783579 C5.98267507,19.6393967 5.94679502,19.6035266 5.90782478,19.5712112 L3.6175,17.672 L3.6175,17.672 L18.3635909,17.672 C18.9660834,17.672 19.4545,17.1835834 19.4545,16.5810909 L19.4545,12.09575 C19.4545,11.5038388 18.9746612,11.024 18.38275,11.024 C17.7908388,11.024 17.311,11.5038388 17.311,12.09575 L17.311,15.8975 L17.311,15.8975 Z" id="形状"></path>
            </g>
        </g>
    </g>
</svg>