<?xml version="1.0" encoding="UTF-8"?>
<svg width="24px" height="24px" viewBox="0 0 24 24" version="1.1" xmlns="http://www.w3.org/2000/svg" xmlns:xlink="http://www.w3.org/1999/xlink">
    <title>单次采集_不可点</title>
    <g id="单次采集_不可点" stroke="none" stroke-width="1" fill="none" fill-rule="evenodd">
        <g id="编组-10">
            <g id="编组-11">
                <rect id="矩形备份-9" fill="#D8D8D8" opacity="0" x="0" y="0" width="24" height="24" rx="2"></rect>
                <g id="单曲循环" transform="translate(1.000000, 1.000000)" fill="#000000" fill-opacity="0.2" fill-rule="nonzero">
                    <path d="M8.62075913,0.904324859 L11.2024647,3.502931 C11.5301626,3.8328833 11.5301626,4.36441092 11.2024647,4.6943632 L8.62074314,7.29157831 C8.45539925,7.45805744 8.23799464,7.53765147 8.02049411,7.53765147 C7.80496023,7.53765147 7.58931445,7.44820811 7.42429033,7.28431923 C7.09277109,6.95508645 7.0910123,6.40432387 7.42024508,6.07280464 L8.57023339,4.88498598 L1.71224109,4.88498598 L1.71224109,18.6533091 L20.2877429,18.6533091 L20.2877429,4.88498598 L15.5110915,4.88498598 C15.0438723,4.88498598 14.6650571,4.50615483 14.6650571,4.03895159 C14.6650571,3.57174836 15.0438723,3.1929172 15.5110915,3.1929172 L21.1337933,3.1929172 C21.6010125,3.19290122 21.9798277,3.63202748 21.9798277,4.0992467 L21.9798277,19.4991835 C21.9798277,19.9664028 21.6010125,20.3453938 21.1337933,20.3453938 L0.866206719,20.3453938 C0.3989875,20.3453938 0.0201723281,19.9664028 0.0201723281,19.4991836 L0.0201723281,4.0992467 C0.0201723281,3.63202748 0.398987484,3.1929012 0.866206719,3.1929012 L8.5685865,3.1929012 L7.42026106,2.06691262 C7.09102828,1.73539339 7.09278709,1.22975222 7.42430631,0.900519437 C7.75571363,0.571190719 8.29141441,0.572805625 8.62075913,0.904324859 Z M14.2841667,8.59166667 L12.6975,16 L10.1775,16 L11.3325,10.575 L10.0725,10.575 L10.2475,9.79333333 C11.2041667,9.65333333 12.0325,9.18666667 12.4991667,8.59166667 L12.4991667,8.59166667 L14.2841667,8.59166667 Z" id="形状结合"></path>
                </g>
            </g>
        </g>
    </g>
</svg>