<?xml version="1.0" encoding="UTF-8"?>
<svg width="24px" height="24px" viewBox="0 0 24 24" version="1.1" xmlns="http://www.w3.org/2000/svg" xmlns:xlink="http://www.w3.org/1999/xlink">
    <title>暂停_点击</title>
    <g id="暂停_点击" stroke="none" stroke-width="1" fill="none" fill-rule="evenodd">
        <g id="编组-3备份-2">
            <rect id="矩形备份-5" fill="#D8D8D8" opacity="0" x="0" y="0" width="24" height="24" rx="2"></rect>
            <g id="暂停" transform="translate(4.000000, 4.000000)" fill-rule="nonzero">
                <rect id="矩形" fill="#000000" opacity="0" x="0" y="0" width="16" height="16"></rect>
                <path d="M1.27105223,0.84919425 C1.14427419,0.84919425 1.01719234,0.897593437 0.920362,0.994439781 C0.823531656,1.09096634 0.775116469,1.21803219 0.775116469,1.34482622 L0.775116469,14.7473193 C0.775116469,14.8737936 0.823531641,15.0008754 0.920362,15.0977058 C1.01719234,15.1942163 1.14427419,15.2426475 1.27105223,15.2426475 L4.92714941,15.2426475 C5.05392745,15.2426475 5.1810093,15.1942323 5.27783964,15.0977058 C5.3743662,15.0008754 5.42276538,14.8737936 5.42276538,14.7473193 L5.42276538,1.34481023 C5.42276538,1.21804817 5.3743502,1.09095034 5.27783964,0.994423797 C5.18100928,0.897609422 5.05392744,0.84919425 4.92714939,0.84919425 L1.27105223,0.84919425 Z M14.6732415,0.84917825 L11.0171444,0.84917825 C10.8903663,0.84917825 10.7632845,0.897593422 10.6664541,0.994423781 C10.5696398,1.09095034 10.5212086,1.21804816 10.5212086,1.34481022 L10.5212086,14.7473033 C10.5212086,14.8737776 10.5696398,15.0008594 10.6664541,15.0976898 C10.7632845,15.1942003 10.8903663,15.2426155 11.0171444,15.2426155 L14.6732415,15.2426155 C14.8000196,15.2426155 14.9271014,15.1942003 15.0239318,15.0976898 C15.1207621,15.0008594 15.1688575,14.8737776 15.1688575,14.7473033 L15.1688575,1.34481022 C15.1688575,1.21803217 15.1207461,1.09096633 15.0239318,0.994423781 C14.9271014,0.897593437 14.8000196,0.84917825 14.6732415,0.84917825 Z" id="形状" fill="#006DB2"></path>
            </g>
        </g>
    </g>
</svg>