<?xml version="1.0" encoding="UTF-8"?>
<svg width="16px" height="16px" viewBox="0 0 16 16" version="1.1" xmlns="http://www.w3.org/2000/svg" xmlns:xlink="http://www.w3.org/1999/xlink">
    <title>问号</title>
    <g id="SMore-ViMo-_运行平台_UI-1.0" stroke="none" stroke-width="1" fill="none" fill-rule="evenodd">
        <g id="设置_模型设置" transform="translate(-451.000000, -422.000000)" fill="#000000" fill-rule="nonzero">
            <g id="编组-20" transform="translate(133.000000, 64.000000)">
                <g id="问号" transform="translate(318.000000, 358.000000)">
                    <rect id="矩形" opacity="0" x="0" y="0" width="16" height="16"></rect>
                    <path d="M8,0.5 C12.14,0.5 15.5,3.86 15.5,8 C15.5,12.14 12.14,15.5 8,15.5 C3.86,15.5 0.5,12.14 0.5,8 C0.5,3.86 3.86,0.5 8,0.5 Z M8,2 C4.69454545,2 2,4.69454545 2,8 C2,11.3054545 4.69454545,14 8,14 C11.3054545,14 14,11.3054545 14,8 C14,4.69454545 11.3054545,2 8,2 Z M7.95,10.2 C8.41944204,10.2 8.8,10.580558 8.8,11.05 C8.8,11.519442 8.41944204,11.9 7.95,11.9 C7.48055796,11.9 7.1,11.519442 7.1,11.05 C7.1,10.580558 7.48055796,10.2 7.95,10.2 Z M8.1,4.1 C8.79,4.1 9.36,4.3 9.79,4.68 C10.23,5.07 10.46,5.6 10.46,6.27 C10.46,6.79 10.32,7.24 10.05,7.61 C9.92,7.76 9.62,8.03 9.21,8.39 C9.09,8.5 9,8.61 8.94,8.74 C8.87,8.87 8.84,9 8.84,9.16 L8.84,9.16 L8.84,9.29 C8.81,9.56 8.59,10.01 7.92,10.01 C7.28,10.01 7.04,9.58 7.04,9.29 L7.04,9.29 L7.04,9.16 C7.04,8.73 7.12,8.39 7.27,8.09 C7.4,7.81 7.76,7.42 8.42,6.83 L8.42,6.83 L8.49,6.74 C8.6,6.62 8.65,6.48 8.65,6.34 C8.65,6.15 8.6,6 8.5,5.89 C8.41,5.8 8.25,5.75 8.04,5.75 C7.68,5.75 7.56,5.86 7.49,5.96 C7.38,6.11 7.33,6.34 7.33,6.64 C7.32,6.99 7.06,7.49 6.42,7.49 C6.09,7.49 5.89,7.35 5.78,7.24 C5.54,7 5.54,6.69 5.54,6.63 C5.54,5.85 5.78,5.23 6.25,4.78 C6.71,4.33 7.33,4.1 8.1,4.1 Z" id="形状结合" fill-opacity="0.5"></path>
                </g>
            </g>
        </g>
    </g>
</svg>