<?xml version="1.0" encoding="UTF-8"?>
<svg width="24px" height="24px" viewBox="0 0 24 24" version="1.1" xmlns="http://www.w3.org/2000/svg" xmlns:xlink="http://www.w3.org/1999/xlink">
    <title>关闭</title>
    <g id="SMore-ViMo-_运行平台_UI-1.0" stroke="none" stroke-width="1" fill="none" fill-rule="evenodd">
        <g id="首单视图-关于我们" transform="translate(-849.000000, -201.000000)">
            <g id="弹框备份-11" transform="translate(483.000000, 191.000000)">
                <g id="关闭" transform="translate(366.000000, 10.000000)">
                    <g>
                        <circle id="椭圆形" stroke-opacity="0.12" stroke="#000000" cx="12" cy="12" r="11.5"></circle>
                        <path d="M12.5,4 C12.7761424,4 13,4.22385763 13,4.5 L13,10.999 L19.5,11 C19.7761424,11 20,11.2238576 20,11.5 L20,12.5 C20,12.7761424 19.7761424,13 19.5,13 L13,12.999 L13,19.5 C13,19.7761424 12.7761424,20 12.5,20 L11.5,20 C11.2238576,20 11,19.7761424 11,19.5 L11,12.999 L4.5,13 C4.22385763,13 4,12.7761424 4,12.5 L4,11.5 C4,11.2238576 4.22385763,11 4.5,11 L11,10.999 L11,4.5 C11,4.22385763 11.2238576,4 11.5,4 L12.5,4 Z" id="形状结合" fill="#999999" transform="translate(12.000000, 12.000000) rotate(-45.000000) translate(-12.000000, -12.000000) "></path>
                    </g>
                </g>
            </g>
        </g>
    </g>
</svg>