<?xml version="1.0" encoding="UTF-8"?>
<svg width="180px" height="80px" viewBox="0 0 180 80" version="1.1" xmlns="http://www.w3.org/2000/svg" xmlns:xlink="http://www.w3.org/1999/xlink">
    <title>logo</title>
    <g id="SMore-ViMo-_运行平台_UI-1.0" stroke="none" stroke-width="1" fill="none" fill-rule="evenodd">
        <g id="首单视图-关于我们" transform="translate(-593.000000, -251.000000)">
            <g id="弹框备份-11" transform="translate(483.000000, 191.000000)">
                <g id="logo" transform="translate(110.000000, 60.000000)">
                    <rect id="矩形" fill-opacity="0.03" fill="#000000" opacity="0" x="0" y="0" width="180" height="80"></rect>
                    <g id="编组" transform="translate(6.000000, 4.000000)" fill-rule="nonzero">
                        <path d="M24.0108982,7.23129825 L27.6125329,8.89872173 L24.1403687,22.9756993 L20.0757788,22.9756993 L24.0108982,7.23129825 Z M32.0357167,6.93950684 L32.3244755,6.9409704 C34.564708,6.9409704 36.0908909,7.92180774 36.7029334,9.37737036 C38.2590341,7.83944202 40.3531176,6.96831456 42.5408773,6.94881709 C45.1224412,6.94881709 47.3940605,8.43576651 47.4019072,11.013407 C47.3214643,12.2585176 47.105717,13.4911713 46.7584779,14.6895854 L46.7584779,14.6895854 L44.7222596,22.9560826 L40.6145128,22.9560826 L42.5761874,15.0348402 C42.8508055,14.1057259 43.0321752,13.1515633 43.1176097,12.1864885 C43.1176097,10.4170579 41.4894197,10.2248138 40.9126873,10.2248138 C38.6175279,10.2248138 37.1109618,11.9353942 36.2635183,15.2623944 L36.2635183,15.2623944 L34.3253837,22.9678526 L30.2568704,22.9678526 L32.1557715,15.2388543 C32.4386069,14.2873093 32.6316943,13.311364 32.7325039,12.3238057 C32.7325039,10.5504518 31.4456453,10.2326605 30.6609754,10.2326605 C29.3886363,10.2171556 28.1911988,10.8327706 27.4634456,11.8765439 L27.4634456,11.8765439 L28.3461993,8.29844928 C29.465163,7.38094757 30.8780614,6.89883433 32.3244755,6.9409704 Z M88.4872219,0.848008811 L87.0865861,6.52509536 L90.3037326,6.52509536 L89.252275,10.7505426 L86.0508219,10.7505426 L84.6698029,16.3648556 C84.4738893,16.9792437 84.3565634,17.6159674 84.3206248,18.2598334 C84.3206248,19.4996118 85.58002,19.5976955 86.1410589,19.5976955 C86.5922441,19.5976955 86.9806557,19.5623853 87.4318409,19.5309985 L87.4318409,19.5309985 L86.6275543,22.7638384 C85.8415072,22.8922829 85.0464739,22.9578797 84.2500045,22.9600059 C83.2573971,22.9600059 79.9343202,22.9246958 79.9343202,19.6957792 C79.977479,18.7275395 80.1274761,17.7670315 80.3815821,16.8317342 L80.3815821,16.8317342 L80.864154,14.7641291 L82.8925257,6.52509536 L84.289238,0.848008811 L88.4872219,0.848008811 Z M59.1287985,8.01596812 C61.3886477,7.74918037 63.9898284,7.92965444 66.1908274,9.37737036 C66.2619093,9.63403344 66.3091894,9.89670052 66.3320679,10.1620402 C66.3399146,10.2797407 66.343838,10.3935178 66.3516847,10.5269117 C66.3505971,10.8472711 66.3269989,11.167158 66.2810644,11.484209 C66.2222141,11.9197008 66.1241304,12.4061961 65.9868132,13.0103919 L65.9868132,13.0103919 L65.9335498,13.2345878 C65.8604813,13.5406718 65.7788757,13.8758828 65.6847153,14.2462469 L65.6847153,14.2462469 L63.6092635,22.9560826 L59.5015167,22.9560826 C59.6113704,22.3479634 61.3141041,14.8935996 61.3141041,14.8935996 L61.3141041,14.8935996 L56.2137499,15.4467918 C54.777804,15.6115725 53.1731541,16.0352943 53.1731541,17.7654913 C53.1731541,19.3309077 54.777804,19.8527132 55.8292616,19.8527132 C57.0161624,19.7911305 58.1696125,19.4380886 59.1876487,18.8247957 L59.1876487,18.8247957 L58.5206793,22.0027087 C57.3336757,22.6563195 55.9952333,22.9851784 54.6404868,22.9560826 C49.9795477,22.9560826 48.8025429,20.1822745 48.8025429,18.3186836 C48.8025429,14.9602965 51.2820997,13.0653188 56.0371992,12.6729838 L56.0371992,12.6729838 L59.674144,12.3787326 C60.027871,12.3449941 60.3790751,12.2886442 60.7256017,12.2100286 C63.6955772,11.5312892 62.6872764,9.64808147 60.7256017,9.32636682 L60.7256017,9.32636682 L60.5529743,9.30282672 L60.2983632,9.28154285 L60.2983632,9.28154285 L60.0429389,9.27536328 C59.8820816,9.27536328 59.7133775,9.29890337 59.5407502,9.29890337 L59.5407502,9.29890337 L59.5093634,9.29890337 C58.77882,9.3704877 58.0618062,9.54346893 57.3789847,9.81286214 L57.3789847,9.81286214 L55.41731,8.87910499 C56.4401465,8.53157331 57.4899423,8.26912436 58.5559895,8.09443511 L58.5559895,8.09443511 Z M79.561602,6.49370857 L80.2285714,6.52509536 L79.1888838,10.5739919 C78.8654792,10.5263571 78.5388477,10.5040569 78.2119698,10.507295 C76.9454824,10.4831586 75.705716,10.8729963 74.6809554,11.6176029 C73.2293161,12.7279107 72.8369812,14.2266302 72.4446463,15.8273567 L72.4446463,15.8273567 L70.6948324,22.9443125 L66.5164654,22.9443125 L68.9685587,13.1359391 C69.9184502,9.3337702 73.2897562,6.63351461 77.2075924,6.53686541 C78.0609209,6.50090137 78.8161657,6.49490737 79.3030424,6.49390837 L79.561602,6.49370857 Z M149.789556,6.49370857 L150.456525,6.52509536 L149.416838,10.5739919 C149.093433,10.5263571 148.766802,10.5040569 148.439924,10.507295 C147.173436,10.4831586 145.93367,10.8729963 144.908909,11.6176029 C143.476887,12.7279107 143.064935,14.2266302 142.6726,15.8273567 L142.6726,15.8273567 L140.922786,22.9443125 L136.744419,22.9443125 L139.196513,13.1359391 C140.146404,9.3337702 143.51771,6.63351461 147.435546,6.53686541 C148.288875,6.50090137 149.04412,6.49490737 149.530996,6.49390837 L149.789556,6.49370857 Z M5.69277995,1.69152893 C5.19314595,2.31377497 4.93411709,3.09503943 4.96303696,3.89252793 C5.13958769,6.39562483 8.67060213,7.8864976 8.92561983,7.99242803 C9.52417072,8.29114421 10.1461294,8.54045252 10.7852874,8.73786441 L10.7852874,8.73786441 L12.9666697,9.4597607 C17.3412043,10.9074766 18.9576242,12.8848447 18.9654709,15.5880324 C18.9654709,18.8561825 15.8699482,22.9443125 9.30226137,22.9443125 C5.27298156,22.9443125 1.17700481,21.2965058 4.31591806e-14,17.1416788 L4.31591806e-14,17.1416788 L4.04889656,15.2153142 C4.55500863,18.0558192 7.02671874,19.232824 9.7730633,19.232824 C13.5434021,19.232824 14.182908,17.0043615 14.182908,16.0588343 C14.182908,14.3325606 12.4684043,13.7048247 10.6165834,13.1045523 L10.6165834,13.1045523 L8.76476251,12.5082032 C5.56330942,11.4724389 2.8365816,9.93056262 2.8365816,6.599639 C2.8365816,4.66150441 3.89196258,2.90776723 5.69277995,1.69152893 Z M101.410735,0.000565345728 L102.568123,16.4864794 L99.370593,21.9870153 L97.9503406,3.95137817 L97.9424939,3.84937109 L93.4659522,22.9443125 L88.9580238,22.9443125 L94.631187,0.000565345728 L101.410735,0.000565345728 Z M119.7367,0.000565345728 L114.063536,22.9443125 L109.586995,22.9443125 L114.483335,3.84937109 L103.43126,22.9443125 L99.4765235,22.9443125 L108.049042,8.20428889 L112.917918,0.000565345728 L119.7367,0.000565345728 Z M126.920352,5.99936654 L125.963055,9.82463219 C123.8366,11.1507243 122.997003,14.0186927 122.997003,15.8273567 C122.997003,17.3260762 123.612969,18.6286282 124.876287,19.2289006 C126.074997,19.8532544 127.41329,20.1611562 128.764327,20.1234243 C130.661523,20.0835102 132.534743,19.6910386 134.288403,18.9660362 C132.703369,21.2180388 130.102189,22.9443125 126.218073,22.9443125 C121.808228,22.9443125 118.763709,20.2332781 118.763709,15.9568273 C118.763709,12.4101194 121.035328,6.98412724 126.920352,5.99936654 L126.920352,5.99936654 Z M160.723931,5.83458587 C166.530488,5.83458587 168.068444,9.95017937 168.068444,12.5592067 C168.069093,13.3543512 167.963537,14.1460207 167.754573,14.9132163 L167.754573,14.9132163 L156.192462,14.9289097 C156.330526,13.9420775 156.594222,12.9769523 156.977132,12.057018 L156.977132,12.057018 L163.85084,12.057018 L163.85084,11.6019095 C163.85084,10.5229884 163.183871,8.72609436 160.771011,8.72609436 C158.93096,8.72609436 157.491091,9.80893879 156.671111,11.3782785 C156.659341,11.3978953 156.631877,11.4528222 156.592644,11.5391359 C156.510253,11.7078399 156.43571,11.8804673 156.365089,12.057018 L156.365089,12.057018 L156.219773,12.4402882 C155.89621,13.339865 155.681445,14.2754498 155.58042,15.2270843 C155.550143,15.4600237 155.533114,15.6944941 155.529416,15.9293638 L155.529416,15.9293638 L155.531806,16.0883567 C155.584682,17.8415453 156.525024,19.715396 159.342912,19.715396 C162.132413,19.715396 163.360421,17.7144878 163.831223,16.9690514 L163.831223,16.9690514 L166.636418,18.3029902 C164.784597,21.6142971 162.014713,22.9403892 159.06043,22.9403892 C154.324948,22.9403892 151.213732,20.2607415 151.213732,15.8234334 C151.213732,11.809847 153.626592,5.83458587 160.723931,5.83458587 Z M131.659758,6.24261421 C134.876905,7.23914495 136.285387,9.97764281 136.285387,12.6376737 C136.265383,14.5632586 135.759312,16.452593 134.814131,18.1303628 C131.659758,19.479995 129.286132,19.6722391 127.614785,19.4603783 C130.388593,18.8444124 132.087404,15.8430501 132.087404,12.7357574 C132.087404,11.5312892 131.746072,10.3935178 130.804468,9.7226251 L130.804468,9.7226251 Z M11.8092816,0.000565345728 C15.5560803,0.000565345728 18.8242303,1.35412088 20.4406503,4.62227091 L20.4406503,4.62227091 L16.5996912,6.44270502 C16.2308964,5.51287122 15.1872854,3.55119653 11.5856507,3.55119653 C8.89030969,3.55119653 7.57598765,4.85767188 7.57598765,6.03467669 C7.57305852,6.2592212 7.60481952,6.48287161 7.67014803,6.69772273 C6.70108074,6.06214013 5.59077286,5.08130279 5.50445918,3.85329443 C5.43776224,2.87638044 6.0223413,1.87592635 7.254273,0.85585551 C8.70216424,0.275958217 10.2496536,-0.014612571 11.8092816,0.000565345728 Z" id="形状结合" fill="#006DB3"></path>
                        <path d="M126.23769,10.9467101 C127.701099,9.68339161 129.886405,10.4680615 129.886405,10.7780061 C129.815784,11.0604872 128.266061,17.6870243 128.266061,17.6870243 L128.266061,17.6870243 L124.519263,17.6870243 C124.519263,17.6870243 126.080756,11.5822927 126.23769,10.9467101 Z M131.624448,4.06123195 L130.290509,9.42445055 C129.740779,9.19898122 129.150412,9.08945621 128.556389,9.1027359 C127.898422,9.097746 127.246109,9.22447346 126.637871,9.47545409 L126.637871,9.47545409 L127.999273,4.06123195 L131.624448,4.06123195 Z M59.2896558,6.10922033 C61.3258741,6.10922033 64.5273272,6.44662837 65.8024158,8.46322995 L65.8024158,8.46322995 L65.8024158,8.4828467 L65.7514122,8.4593066 L65.4583229,8.31174339 C61.5321545,6.42377446 56.8994748,7.68755507 54.6679502,8.51815685 L54.6679502,8.51815685 L53.1339206,7.78449051 C54.4247026,6.76834302 56.4099174,6.10922033 59.2896558,6.10922033 Z" id="形状结合" fill="#B6262D"></path>
                        <path d="M159.095741,33.078324 L158.770103,37.4175484 L167.817346,37.4175484 L167.546635,41.007413 L158.503315,41.0191831 L158.11098,46.1195373 L166.055762,46.1195373 L165.757588,49.6937086 L165.734048,49.7486355 L150.013187,49.7486355 L150.366288,51.1414245 C151.371484,53.7776256 152.794219,56.2349563 154.579965,58.4192376 C156.620433,56.3263911 158.295401,53.9061082 159.535156,51.259125 L159.535156,51.259125 L159.558696,51.2120448 L165.141622,51.2120448 L165.086695,51.3336686 C163.223104,55.5865793 160.782781,59.0234334 157.840269,61.534377 C159.747017,63.0370198 162.426664,64.5475093 165.812515,66.026612 L165.812515,66.026612 L165.930215,66.0776156 L165.663427,69.5811666 L165.447643,69.5144696 C160.661157,68.0706771 156.816275,66.3208632 154.06993,64.3042616 C150.84886,66.2659363 141.240578,69.4360026 141.240578,69.4360026 L141.240578,69.4360026 L141.515212,65.8108278 C141.515212,65.8108278 148.153519,63.6529857 150.833167,61.4951435 C148.33007,58.8272659 146.384089,55.3747185 145.042303,51.2277382 L145.042303,51.2277382 L144.595041,49.6583984 L144.865752,46.1077672 L152.681064,46.1077672 L153.073399,41.007413 L145.01484,41.007413 L145.285551,37.4175484 L153.348034,37.4175484 L153.673672,33.078324 L159.095741,33.078324 Z M123.361874,33.1567909 L121.619907,56.1711584 L126.045445,56.1711584 L125.766888,59.8355667 L121.34135,59.8355667 L120.607683,69.5144696 L115.424939,69.5144696 L116.154682,59.8355667 L105.122223,59.8355667 L105.396858,56.1711584 L116.433239,56.1711584 L118.175207,33.1567909 L123.361874,33.1567909 Z M106.432622,33.0508605 L106.173681,36.6328785 L101.520589,36.6328785 L101.045863,42.9102375 L105.671492,42.9102375 L105.396858,46.5393357 L100.873236,46.5511057 C101.291262,50.034519 102.599184,53.3516152 104.671038,56.1829284 L104.671038,56.1829284 L104.39248,59.8512601 C104.39248,59.8512601 101.143947,56.2770888 100.170956,54.4958882 L100.170956,54.4958882 L99.0253383,69.4752361 L94.1133049,69.4752361 L95.1451458,55.8612138 C93.4738031,58.5440894 91.5120729,61.0347367 89.2954318,63.2881142 L89.2954318,63.2881142 L88.9423304,63.6529857 L89.3346653,58.6781786 L89.3582054,58.6389451 C91.9797412,54.9073293 94.0822591,50.8369179 95.608101,46.5393357 L95.608101,46.5393357 L90.645064,46.5393357 L90.9196985,42.9102375 L96.1377532,42.9102375 L96.6124784,36.6328785 L91.3708837,36.6328785 L91.6455181,33.0508605 L106.432622,33.0508605 Z M141.487749,33.1567909 L141.095414,38.5317796 L144.296867,38.5317796 L144.022232,42.1608778 L140.820779,42.1608778 L140.20089,50.293981 L143.394496,49.8545659 L143.088475,53.5111275 L139.906639,53.9505426 L138.729634,69.3967691 L130.4906,69.3967691 L130.765235,65.8147512 L133.939224,65.8147512 C133.986305,65.049698 134.029461,64.3395718 134.053002,63.9472369 L134.053002,63.9472369 L134.755281,54.6645922 L130.859395,55.2020911 L131.130106,51.5494528 L135.053456,51.0080306 L135.720425,42.1608778 L131.848079,42.1608778 L132.122714,38.5317796 L135.995059,38.5317796 L136.387394,33.1567909 L141.487749,33.1567909 Z M107.468386,45.8095927 L107.546853,45.8409795 L115.829044,49.1915198 L114.23224,52.4125897 L114.157697,52.3812029 L105.871583,49.0306625 L107.468386,45.8095927 Z M108.311906,37.0330601 L116.488166,40.8426324 L114.726583,43.9734652 L106.554246,40.1678163 L108.311906,37.0330601 Z" id="形状结合" fill="#006DB3"></path>
                        <path d="M86.7727182,30.9950254 L86.7727182,71.8370925 L0.102007084,71.8370925 L0.102007084,30.9950254 L86.7727182,30.9950254 Z M11.6288076,54.4919649 L6.50098992,54.4919649 L5.3632186,69.5576265 L10.4910362,69.5576265 L11.6288076,54.4919649 Z M20.2287894,54.4919649 L15.1009718,54.4919649 L13.9632004,69.5576265 L28.2677323,69.5576265 L29.1426392,57.9484357 L33.1993824,57.9484357 L32.3205522,69.5576265 L37.4483698,69.5576265 L38.5861411,54.4919649 L24.277686,54.4919649 L23.3988557,66.1011557 L19.3499591,66.1011557 L20.2287894,54.4919649 Z M52.2982472,43.4791232 L43.435401,43.4791232 L43.435401,46.935594 L46.9114885,46.935594 L45.2009082,69.5419331 L45.2048315,69.5380097 L45.2009082,69.5576265 L52.7376623,69.5576265 L53.0005267,66.1011557 L50.5915902,66.1011557 L52.2982472,43.4791232 Z M77.9687222,54.4919649 L55.2054491,54.4919649 L54.946508,57.9484357 L54.9661248,57.9484357 L54.0872945,69.5576265 L59.2151122,69.5576265 L60.0939424,57.9484357 L63.648497,57.9484357 L62.7696667,69.5576265 L67.8974843,69.5576265 L68.7723912,57.9484357 L72.5937335,57.9484357 L71.7149033,69.5576265 L76.8427209,69.5576265 L77.7333212,57.7208814 L77.7254745,57.7208814 L77.9687222,54.4919649 Z M40.2378712,33.1567909 L8.14487331,33.1567909 L6.66184724,52.7735378 L38.7587685,52.7735378 L40.2378712,33.1567909 Z M61.9379166,33.1567909 L56.8336391,33.1567909 L56.719862,34.6358937 L55.170139,34.6358937 L54.9111979,38.0923645 L56.4609209,38.0923645 L55.3466897,52.7735378 L78.1413496,52.7735378 L79.2477341,38.0923645 L81.6449006,38.0923645 L81.907765,34.6358937 L79.5105985,34.6358937 L79.6204523,33.1567909 L74.496558,33.1567909 L74.3827809,34.6358937 L61.8280628,34.6358937 L61.9379166,33.1567909 Z M20.7584416,44.6914381 L20.4014168,49.3209904 L12.0525293,49.3209904 L12.4017074,44.6914381 L20.7584416,44.6914381 Z M34.23907,44.6914381 L33.8859686,49.3209904 L25.5370811,49.3209904 L25.8862592,44.6914381 L34.23907,44.6914381 Z M73.5588775,45.4329511 L73.272473,49.3209904 L60.7373717,49.3209904 L61.0316229,45.4329511 L73.5588775,45.4329511 Z M74.1395332,38.0923645 L73.8295886,41.9804037 L61.2944873,41.9804037 L61.5848152,38.0923645 L74.1395332,38.0923645 Z M21.3783308,36.6132617 L21.0134593,41.2388907 L12.6567251,41.2388907 L13.0059032,36.6132617 L21.3783308,36.6132617 Z M34.8471892,36.6132617 L34.4980111,41.2388907 L26.1412769,41.2388907 L26.490455,36.6132617 L34.8471892,36.6132617 Z M53.0750704,33.1567909 L47.9511761,33.1567909 L47.4058305,40.3404436 L52.5336482,40.3404436 L53.0750704,33.1567909 Z" id="形状结合" fill="#B6262D"></path>
                    </g>
                </g>
            </g>
        </g>
    </g>
</svg>