<?xml version="1.0" encoding="UTF-8"?>
<svg width="20px" height="20px" viewBox="0 0 20 20" version="1.1" xmlns="http://www.w3.org/2000/svg" xmlns:xlink="http://www.w3.org/1999/xlink">
    <title>添加</title>
    <g id="添加" stroke="none" stroke-width="1" fill="none" fill-rule="evenodd" fill-opacity="0.5">
        <path d="M10.25,1 C10.5261424,1 10.75,1.22385763 10.75,1.5 L10.75,9.25 L18.75,9.25 C19.0261424,9.25 19.25,9.47385763 19.25,9.75 L19.25,10.25 C19.25,10.5261424 19.0261424,10.75 18.75,10.75 L10.75,10.75 L10.75,18.5 C10.75,18.7761424 10.5261424,19 10.25,19 L9.75,19 C9.47385763,19 9.25,18.7761424 9.25,18.5 L9.25,10.749 L1.75,10.75 C1.47385763,10.75 1.25,10.5261424 1.25,10.25 L1.25,9.75 C1.25,9.47385763 1.47385763,9.25 1.75,9.25 L9.25,9.249 L9.25,1.5 C9.25,1.22385763 9.47385763,1 9.75,1 L10.25,1 Z" id="形状结合" fill="#000000"></path>
    </g>
</svg>