<?xml version="1.0" encoding="UTF-8"?>
<svg width="16px" height="16px" viewBox="0 0 16 16" version="1.1" xmlns="http://www.w3.org/2000/svg" xmlns:xlink="http://www.w3.org/1999/xlink">
    <title>关闭</title>
    <g id="SMore-ViMo-_运行平台_UI-1.0" stroke="none" stroke-width="1" fill="none" fill-rule="evenodd">
        <g id="设置_相机设置" transform="translate(-1207.000000, -71.000000)">
            <g id="编组-20" transform="translate(133.000000, 64.000000)">
                <g id="关闭" transform="translate(1074.000000, 7.000000)">
                    <rect id="矩形" stroke="#979797" fill="#D8D8D8" opacity="0" x="0.5" y="0.5" width="15" height="15"></rect>
                    <path d="M2.69669914,1.98959236 C2.89196129,1.79433021 3.20854378,1.79433021 3.40380592,1.98959236 L7.99929289,6.58507933 L12.5961941,1.98959236 C12.7914562,1.79433021 13.1080387,1.79433021 13.3033009,1.98959236 L14.0104076,2.69669914 C14.2056698,2.89196129 14.2056698,3.20854378 14.0104076,3.40380592 L9.41350646,7.99929289 L14.0104076,12.5961941 C14.2056698,12.7914562 14.2056698,13.1080387 14.0104076,13.3033009 L13.3033009,14.0104076 C13.1080387,14.2056698 12.7914562,14.2056698 12.5961941,14.0104076 L7.99929289,9.41350646 L3.40380592,14.0104076 C3.20854378,14.2056698 2.89196129,14.2056698 2.69669914,14.0104076 L1.98959236,13.3033009 C1.79433021,13.1080387 1.79433021,12.7914562 1.98959236,12.5961941 L6.58507933,7.99929289 L1.98959236,3.40380592 C1.79433021,3.20854378 1.79433021,2.89196129 1.98959236,2.69669914 L2.69669914,1.98959236 Z" id="路径" fill="#999999"></path>
                </g>
            </g>
        </g>
    </g>
</svg>