<?xml version="1.0" encoding="UTF-8"?>
<svg width="20px" height="20px" viewBox="0 0 20 20" version="1.1" xmlns="http://www.w3.org/2000/svg" xmlns:xlink="http://www.w3.org/1999/xlink">
    <title>删除</title>
    <g id="删除" stroke="none" stroke-width="1" fill="none" fill-rule="evenodd" fill-opacity="0.5">
        <g id="编组-26" transform="translate(1.000000, 0.500000)" fill="#000000">
            <path d="M10.5,0.75 C11.1903559,0.75 11.75,1.30964406 11.75,2 L11.75,3.5 L17.5,3.5 C17.7761424,3.5 18,3.72385763 18,4 L18,4.5 C18,4.77614237 17.7761424,5 17.5,5 L15.75,5 L15.75,17 C15.75,17.6472087 15.2581253,18.1795339 14.6278052,18.2435464 L14.5,18.25 L3.5,18.25 C2.80964406,18.25 2.25,17.6903559 2.25,17 L2.25,17 L2.25,5 L0.5,5 C0.223857625,5 3.38176876e-17,4.77614237 0,4.5 L0,4 C-3.38176876e-17,3.72385763 0.223857625,3.5 0.5,3.5 L6.25,3.5 L6.25,2 C6.25,1.30964406 6.80964406,0.75 7.5,0.75 L10.5,0.75 Z M14.25,5 L3.75,5 L3.75,16.749 L14.25,16.749 L14.25,5 Z M7.25,7.5 C7.52614237,7.5 7.75,7.72385763 7.75,8 L7.75,14 C7.75,14.2761424 7.52614237,14.5 7.25,14.5 L6.75,14.5 C6.47385763,14.5 6.25,14.2761424 6.25,14 L6.25,8 C6.25,7.72385763 6.47385763,7.5 6.75,7.5 L7.25,7.5 Z M11.25,7.5 C11.5261424,7.5 11.75,7.72385763 11.75,8 L11.75,14 C11.75,14.2761424 11.5261424,14.5 11.25,14.5 L10.75,14.5 C10.4738576,14.5 10.25,14.2761424 10.25,14 L10.25,8 C10.25,7.72385763 10.4738576,7.5 10.75,7.5 L11.25,7.5 Z M10.25,2.25 L7.75,2.25 L7.75,3.5 L10.25,3.5 L10.25,2.25 Z" id="形状结合"></path>
        </g>
    </g>
</svg>