<?xml version="1.0" encoding="UTF-8"?>
<svg width="20px" height="20px" viewBox="0 0 20 20" version="1.1" xmlns="http://www.w3.org/2000/svg" xmlns:xlink="http://www.w3.org/1999/xlink">
    <title>数据源设置</title>
    <g id="数据源设置" stroke="none" stroke-width="1" fill="none" fill-rule="evenodd" fill-opacity="0.5">
        <g id="编组备份" transform="translate(0.700000, 1.000000)" fill="#000000" fill-rule="nonzero">
            <path d="M9.3,0.25 C10.7335539,0.25 11.9109107,1.34691043 12.0385351,2.74719609 C14.9667582,3.85352452 17.05,6.68347867 17.05,10 C17.05,10.2180239 17.0409971,10.433945 17.0233428,10.647412 C17.8185581,11.1284658 18.35,12.0021704 18.35,13 C18.35,14.5187831 17.1187831,15.75 15.6,15.75 C15.2732959,15.75 14.959898,15.6930292 14.669199,15.5884802 C13.2772055,16.9268599 11.3847301,17.75 9.3,17.75 C7.2152699,17.75 5.32279447,16.9268599 3.92985462,15.5878606 C3.64010202,15.6930292 3.32670413,15.75 3,15.75 C1.48121694,15.75 0.25,14.5187831 0.25,13 C0.25,12.0021704 0.781441934,11.1284658 1.57672145,10.6464904 C1.5590029,10.433945 1.55,10.2180239 1.55,10 C1.55,6.68347867 3.63324176,3.85352452 6.56254083,2.747322 C6.68908929,1.34691043 7.86644607,0.25 9.3,0.25 Z M11.7502754,4.24974529 C11.2951441,5.14030272 10.3687733,5.75 9.3,5.75 C8.23122673,5.75 7.3048559,5.14030272 6.8497246,4.24974529 L6.71867138,4.30628454 C4.5548207,5.2888595 3.05,7.4686949 3.05,10 C3.05,10.0844782 3.05167604,10.168565 3.05499669,10.2522288 C4.54863621,10.2800791 5.75,11.4997428 5.75,13 C5.75,13.6372065 5.53327776,14.2237948 5.16952235,14.6900758 C6.27022476,15.6609839 7.71632634,16.25 9.3,16.25 C10.8836737,16.25 12.3297752,15.6609839 13.4311826,14.6900739 C13.0667222,14.2237948 12.85,13.6372065 12.85,13 C12.85,11.4812169 14.0812169,10.25 15.6,10.25 L15.5450033,10.2522288 C15.548324,10.168565 15.55,10.0844782 15.55,10 C15.55,7.4686949 14.0451793,5.2888595 11.8813286,4.30628454 Z M3,11.75 C2.30964406,11.75 1.75,12.3096441 1.75,13 C1.75,13.6903559 2.30964406,14.25 3,14.25 C3.69035594,14.25 4.25,13.6903559 4.25,13 C4.25,12.3096441 3.69035594,11.75 3,11.75 Z M15.6,11.75 C14.9096441,11.75 14.35,12.3096441 14.35,13 C14.35,13.6903559 14.9096441,14.25 15.6,14.25 C16.2903559,14.25 16.85,13.6903559 16.85,13 C16.85,12.3096441 16.2903559,11.75 15.6,11.75 Z M9.3,1.75 C8.60964406,1.75 8.05,2.30964406 8.05,3 C8.05,3.69035594 8.60964406,4.25 9.3,4.25 C9.99035594,4.25 10.55,3.69035594 10.55,3 C10.55,2.30964406 9.99035594,1.75 9.3,1.75 Z" id="形状结合"></path>
        </g>
    </g>
</svg>