<?xml version="1.0" encoding="UTF-8"?>
<svg width="20px" height="20px" viewBox="0 0 20 20" version="1.1" xmlns="http://www.w3.org/2000/svg" xmlns:xlink="http://www.w3.org/1999/xlink">
    <title>模型设置</title>
    <g id="模型设置" stroke="none" stroke-width="1" fill="none" fill-rule="evenodd" opacity="0.5">
        <g id="编组" transform="translate(3.000000, 3.000000)" stroke="#000000">
            <rect id="矩形" stroke-width="1.5" stroke-linejoin="round" x="0" y="4" width="14" height="10"></rect>
            <polygon id="矩形备份" stroke-width="1.5" stroke-linejoin="round" transform="translate(7.000000, 2.000000) scale(1, -1) translate(-7.000000, -2.000000) " points="0 0 14 0 11 4 3 4"></polygon>
            <path d="M3.9852403,12.1010768 L4.55088609,10.5476615 L4.55088609,10.5476615 L7.25248609,10.5476615 L7.81813188,12.1010768 C7.83251417,12.1405745 7.87006165,12.1668615 7.91209631,12.1668615 L8.72600989,12.1668615 C8.78123836,12.1668615 8.82600989,12.12209 8.82600989,12.0668615 C8.82600989,12.0545721 8.82374461,12.042388 8.8193276,12.0309198 L6.47635841,5.94771984 C6.46149291,5.90912361 6.42440073,5.88366153 6.3830407,5.88366153 L5.42913148,5.88366153 C5.38777145,5.88366153 5.35067927,5.90912361 5.33581378,5.94771984 L2.99284459,12.0309198 C2.97299454,12.0824578 2.99868265,12.1403292 3.0502206,12.1601792 C3.06168878,12.1645963 3.0738729,12.1668615 3.0861623,12.1668615 L3.89127588,12.1668615 C3.93331053,12.1668615 3.97085802,12.1405745 3.9852403,12.1010768 Z M6.96208609,9.75566153 L4.84128609,9.75566153 L5.88848609,6.91326153 L5.92368609,6.91326153 L6.96208609,9.75566153 Z M10.4556861,12.0668615 L10.4556861,5.98366153 C10.4556861,5.92843306 10.4109146,5.88366153 10.3556861,5.88366153 L9.60528609,5.88366153 C9.55005762,5.88366153 9.50528609,5.92843306 9.50528609,5.98366153 L9.50528609,12.0668615 C9.50528609,12.12209 9.55005762,12.1668615 9.60528609,12.1668615 L10.3556861,12.1668615 C10.4109146,12.1668615 10.4556861,12.12209 10.4556861,12.0668615 Z" id="AI" stroke-width="0.5" fill="#000000" fill-rule="nonzero"></path>
        </g>
    </g>
</svg>