<?xml version="1.0" encoding="UTF-8"?>
<svg width="20px" height="20px" viewBox="0 0 20 20" version="1.1" xmlns="http://www.w3.org/2000/svg" xmlns:xlink="http://www.w3.org/1999/xlink">
    <title>保存设置</title>
    <g id="保存设置" stroke="none" stroke-width="1" fill="none" fill-rule="evenodd">
        <g>
            <rect id="矩形" fill="#D8D8D8" opacity="0" x="0" y="0" width="20" height="20" rx="2"></rect>
            <path d="M3,17.75 C2.58578644,17.75 2.25,17.4142136 2.25,17 L2.25,17 L2.25,3 C2.25,2.58578644 2.58578644,2.25 3,2.25 L3,2.25 L13,2.25 C13.1989124,2.25 13.3896778,2.32901763 13.5303301,2.46966991 L13.5303301,2.46966991 L17.5303301,6.46966991 C17.6709824,6.6103222 17.75,6.80108763 17.75,7 L17.75,7 L17.75,17 C17.75,17.4142136 17.4142136,17.75 17,17.75 L17,17.75 Z M5.25,3.75 L3.75,3.75 L3.75,16.25 L5.25,16.25 L5.25,13 C5.25,12.6203042 5.53215388,12.306509 5.89822944,12.2568466 L6,12.25 L14,12.25 C14.4142136,12.25 14.75,12.5857864 14.75,13 L14.75,13 L14.75,16.25 L16.25,16.25 L16.25,7.311 L12.689,3.75 L11.75,3.75 L11.75,7 C11.75,7.37969577 11.4678461,7.69349096 11.1017706,7.74315338 L11,7.75 L6,7.75 C5.58578644,7.75 5.25,7.41421356 5.25,7 L5.25,7 L5.25,3.75 Z M13.25,13.75 L6.75,13.75 L6.75,16.25 L13.25,16.25 L13.25,13.75 Z M10.25,3.75 L6.75,3.75 L6.75,6.25 L10.25,6.25 L10.25,3.75 Z" id="形状结合" fill-opacity="0.5" fill="#000000" fill-rule="nonzero"></path>
        </g>
    </g>
</svg>