<?xml version="1.0" encoding="UTF-8"?>
<svg width="14px" height="14px" viewBox="0 0 14 14" version="1.1" xmlns="http://www.w3.org/2000/svg" xmlns:xlink="http://www.w3.org/1999/xlink">
    <title>选中_1备份</title>
    <g id="选中_1备份" stroke="none" stroke-width="1" fill="none" fill-rule="evenodd">
        <rect id="矩形" fill="#FFFFFF" x="1" y="1" width="12" height="12"></rect>
        <path d="M12,0 C13.1045695,-2.02906125e-16 14,0.8954305 14,2 L14,12 C14,13.1045695 13.1045695,14 12,14 L2,14 C0.8954305,14 1.3527075e-16,13.1045695 0,12 L0,2 C-1.3527075e-16,0.8954305 0.8954305,2.02906125e-16 2,0 L12,0 Z M10.3390032,3.90656417 C10.143741,3.71130203 9.82715855,3.71130203 9.6318964,3.90656417 L9.6318964,3.90656417 L6.44991551,7.08854431 L4.68214834,5.32077758 C4.48688619,5.12551543 4.17030371,5.12551543 3.97504156,5.32077758 L3.97504156,5.32077758 L3.26793478,6.02788436 C3.07267263,6.22314651 3.07267263,6.539729 3.26793478,6.73499114 L3.26793478,6.73499114 L6.0963619,9.56341827 C6.29162405,9.75868041 6.60820654,9.75868041 6.80346868,9.56341827 L6.80346868,9.56341827 L11.04611,5.32077774 C11.2413721,5.12551559 11.2413721,4.8089331 11.04611,4.61367096 L11.04611,4.61367096 Z" id="选中" fill="#006DB2"></path>
    </g>
</svg>