<?xml version="1.0" encoding="UTF-8"?>
<svg width="20px" height="20px" viewBox="0 0 20 20" version="1.1" xmlns="http://www.w3.org/2000/svg" xmlns:xlink="http://www.w3.org/1999/xlink">
    <title>显示设置</title>
    <g id="显示设置" stroke="none" stroke-width="1" fill="none" fill-rule="evenodd">
        <g>
            <rect id="矩形" fill="#D8D8D8" opacity="0" x="0" y="0" width="20" height="20" rx="2"></rect>
            <path d="M16.5,2.25 C17.4664983,2.25 18.25,3.03350169 18.25,4 L18.25,4 L18.25,12 C18.25,12.9664983 17.4664983,13.75 16.5,13.75 L16.5,13.75 L10.75,13.75 L10.75,16 L15.25,16 C15.6642136,16 16,16.3357864 16,16.75 C16,17.1642136 15.6642136,17.5 15.25,17.5 L4.75,17.5 C4.33578644,17.5 4,17.1642136 4,16.75 C4,16.3357864 4.33578644,16 4.75,16 L9.25,16 L9.25,13.75 L3.5,13.75 C2.5818266,13.75 1.82880766,13.0428897 1.7558012,12.1435272 L1.75,12 L1.75,4 C1.75,3.03350169 2.53350169,2.25 3.5,2.25 L3.5,2.25 Z M16.5,3.75 L3.5,3.75 C3.36192881,3.75 3.25,3.86192881 3.25,4 L3.25,4 L3.25,12 C3.25,12.1380712 3.36192881,12.25 3.5,12.25 L3.5,12.25 L16.5,12.25 C16.6380712,12.25 16.75,12.1380712 16.75,12 L16.75,12 L16.75,4 C16.75,3.86192881 16.6380712,3.75 16.5,3.75 L16.5,3.75 Z" id="形状结合" fill-opacity="0.5" fill="#000000" fill-rule="nonzero"></path>
        </g>
    </g>
</svg>